<?xml version="1.0" encoding="UTF-8" standalone="no"?>
<!-- Created with Inkscape (http://www.inkscape.org/) -->

<svg
   width="148.11517mm"
   height="31.417133mm"
   viewBox="0 0 148.11517 31.417133"
   version="1.1"
   id="svg1"
   xml:space="preserve"
   sodipodi:docname="thread-of-wealth-2-with-name.svg"
   inkscape:version="1.3.2 (091e20e, 2023-11-25)"
   inkscape:export-filename="thread-of-wealth-2-with-name.png"
   inkscape:export-xdpi="206.97"
   inkscape:export-ydpi="206.97"
   xmlns:inkscape="http://www.inkscape.org/namespaces/inkscape"
   xmlns:sodipodi="http://sodipodi.sourceforge.net/DTD/sodipodi-0.dtd"
   xmlns="http://www.w3.org/2000/svg"
   xmlns:svg="http://www.w3.org/2000/svg"><sodipodi:namedview
     id="namedview1"
     pagecolor="#ffffff"
     bordercolor="#000000"
     borderopacity="0.25"
     inkscape:showpageshadow="2"
     inkscape:pageopacity="0.0"
     inkscape:pagecheckerboard="0"
     inkscape:deskcolor="#d1d1d1"
     inkscape:document-units="mm"
     showgrid="false"
     inkscape:zoom="0.85053442"
     inkscape:cx="289.81778"
     inkscape:cy="87.591987"
     inkscape:window-width="1440"
     inkscape:window-height="768"
     inkscape:window-x="0"
     inkscape:window-y="25"
     inkscape:window-maximized="1"
     inkscape:current-layer="layer1" /><defs
     id="defs1" /><g
     inkscape:label="Ebene 1"
     inkscape:groupmode="layer"
     id="layer1"
     transform="translate(-18.496855,-18.260122)"><circle
       style="opacity:1;fill:#000000;fill-opacity:1;stroke:none;stroke-width:2;stroke-linecap:round"
       id="path1"
       cx="34.205421"
       cy="33.968689"
       r="15.708567" /><path
       style="fill:none;fill-opacity:0;stroke:#ffffff;stroke-width:0.59;stroke-linecap:round;stroke-dasharray:none;stroke-opacity:1"
       d="M 37.677819,21.62859 21.699957,37.606452"
       id="path6" /><path
       style="fill:none;fill-opacity:0;stroke:#ffffff;stroke-width:0.59;stroke-linecap:round;stroke-dasharray:none;stroke-opacity:1"
       d="M 46.716143,30.666914 30.738281,46.644776"
       id="path7" /><path
       d="m 39.750811,28.593947 a 3.4821726,3.4821727 0 0 1 -2.462268,5.944438 q -0.0081,-8e-6 -0.01624,-5e-4 l -6.052697,-0.367137 a 2.9464537,2.9464538 0 1 0 2.95437,2.95437 l -0.0526,-0.867468 a 0.26786064,0.26786064 0 1 1 0.534736,-0.03246 l 0.05311,0.875746 q 4.99e-4,0.0081 5e-4,0.01624 A 3.4821726,3.4821727 0 1 1 31.22755,33.635004 q 0.0081,4e-6 0.01623,5e-4 l 6.052689,0.367111 A 2.9464537,2.9464538 0 1 0 34.3421,31.048246 l 0.0526,0.867467 a 0.26786078,0.26786078 0 1 1 -0.534737,0.03246 l -0.05311,-0.875745 q -4.84e-4,-0.0081 -5e-4,-0.01623 a 3.4821726,3.4821727 0 0 1 5.944439,-2.46227 z"
       id="path1-2"
       style="fill:#ffffff;fill-opacity:1;stroke-width:0.066965" /><text
       xml:space="preserve"
       style="font-weight:900;font-size:7.72435px;line-height:1.3;font-family:Inter;-inkscape-font-specification:'Inter Heavy';text-align:start;letter-spacing:0.428625px;text-anchor:start;fill:#ffffff;stroke:#ffffff;stroke-width:1.29185;stroke-linecap:round;stroke-dasharray:none"
       x="60.575184"
       y="36.541615"
       id="text1"><tspan
         sodipodi:role="line"
         id="tspan1"
         style="text-align:start;letter-spacing:0.428625px;text-anchor:start;fill:#000000;fill-opacity:1;stroke:none;stroke-width:1.29185"
         x="60.575184"
         y="36.541615">THE THREAD OF WEALTH</tspan></text></g></svg>
