<?xml version="1.0" encoding="UTF-8" standalone="no"?>
<!-- Created with Inkscape (http://www.inkscape.org/) -->

<svg
   width="148.11517mm"
   height="31.417133mm"
   viewBox="0 0 148.11517 31.417133"
   version="1.1"
   id="svg1"
   xml:space="preserve"
   sodipodi:docname="threadofwealth-with-name-grey.svg"
   inkscape:version="1.3.2 (091e20e, 2023-11-25)"
   inkscape:export-filename="thread-of-wealth-2-with-name.png"
   inkscape:export-xdpi="206.97"
   inkscape:export-ydpi="206.97"
   xmlns:inkscape="http://www.inkscape.org/namespaces/inkscape"
   xmlns:sodipodi="http://sodipodi.sourceforge.net/DTD/sodipodi-0.dtd"
   xmlns="http://www.w3.org/2000/svg"
   xmlns:svg="http://www.w3.org/2000/svg"><sodipodi:namedview
     id="namedview1"
     pagecolor="#ffffff"
     bordercolor="#000000"
     borderopacity="0.25"
     inkscape:showpageshadow="2"
     inkscape:pageopacity="0.0"
     inkscape:pagecheckerboard="0"
     inkscape:deskcolor="#d1d1d1"
     inkscape:document-units="mm"
     showgrid="false"
     inkscape:zoom="0.85053442"
     inkscape:cx="289.81778"
     inkscape:cy="87.004121"
     inkscape:window-width="1344"
     inkscape:window-height="449"
     inkscape:window-x="0"
     inkscape:window-y="25"
     inkscape:window-maximized="0"
     inkscape:current-layer="layer1" /><defs
     id="defs1" /><g
     inkscape:label="Ebene 1"
     inkscape:groupmode="layer"
     id="layer1"
     transform="translate(-18.496855,-18.260122)"><circle
       style="opacity:1;fill:#a9a9a9;fill-opacity:1;stroke:none;stroke-width:2;stroke-linecap:round"
       id="path1"
       cx="34.205421"
       cy="33.968689"
       r="15.708567" /><path
       style="fill:none;fill-opacity:0;stroke:#ffffff;stroke-width:0.59;stroke-linecap:round;stroke-dasharray:none;stroke-opacity:1"
       d="M 37.677819,21.62859 21.699957,37.606452"
       id="path6" /><path
       style="fill:none;fill-opacity:0;stroke:#ffffff;stroke-width:0.59;stroke-linecap:round;stroke-dasharray:none;stroke-opacity:1"
       d="M 46.716143,30.666914 30.738281,46.644776"
       id="path7" /><path
       d="m 39.750811,28.593947 a 3.4821726,3.4821727 0 0 1 -2.462268,5.944438 q -0.0081,-8e-6 -0.01624,-5e-4 l -6.052697,-0.367137 a 2.9464537,2.9464538 0 1 0 2.95437,2.95437 l -0.0526,-0.867468 a 0.26786064,0.26786064 0 1 1 0.534736,-0.03246 l 0.05311,0.875746 q 4.99e-4,0.0081 5e-4,0.01624 A 3.4821726,3.4821727 0 1 1 31.22755,33.635004 q 0.0081,4e-6 0.01623,5e-4 l 6.052689,0.367111 A 2.9464537,2.9464538 0 1 0 34.3421,31.048246 l 0.0526,0.867467 a 0.26786078,0.26786078 0 1 1 -0.534737,0.03246 l -0.05311,-0.875745 q -4.84e-4,-0.0081 -5e-4,-0.01623 a 3.4821726,3.4821727 0 0 1 5.944439,-2.46227 z"
       id="path1-2"
       style="fill:#ffffff;fill-opacity:1;stroke-width:0.066965" /><path
       style="font-weight:900;font-size:7.72435px;line-height:1.3;font-family:Inter;-inkscape-font-specification:'Inter Heavy';letter-spacing:0.428625px;fill:#a9a9a9;stroke-width:1.29185;stroke-linecap:round"
       d="m 60.783654,32.152779 v -1.228874 h 4.882579 v 1.228874 h -1.689702 v 4.388836 h -1.503176 v -4.388836 z m 5.881748,4.388836 v -5.61771 h 1.52512 v 2.194418 h 2.018865 v -2.194418 h 1.52512 v 5.61771 h -1.52512 v -2.194418 h -2.018865 v 2.194418 z m 6.221887,0 v -5.61771 h 4.048701 v 1.228874 h -2.52358 v 0.965544 h 2.31511 v 1.228874 h -2.31511 v 0.965544 h 2.512608 v 1.228874 z m 7.045517,-4.388836 v -1.228874 h 4.882579 v 1.228874 h -1.689701 v 4.388836 h -1.503176 v -4.388836 z m 5.881749,4.388836 v -5.61771 h 1.525121 v 2.194418 h 2.018864 v -2.194418 h 1.52512 v 5.61771 h -1.52512 v -2.194418 h -2.018864 v 2.194418 z m 6.221888,0 v -5.61771 h 2.424831 q 0.625409,0 1.094466,0.227671 0.469057,0.227671 0.729644,0.655583 0.260587,0.427911 0.260587,1.02589 0,0.603465 -0.268816,1.017661 -0.266073,0.414196 -0.748845,0.625409 -0.480029,0.211213 -1.121896,0.211213 h -1.448316 v -1.184986 h 1.141098 q 0.268816,0 0.458084,-0.06583 0.192012,-0.06858 0.293504,-0.216699 0.104234,-0.148123 0.104234,-0.386766 0,-0.241386 -0.104234,-0.392252 -0.101492,-0.15361 -0.293504,-0.224928 -0.189268,-0.07406 -0.458084,-0.07406 h -0.537633 v 4.399808 z m 3.291626,-2.578441 1.404428,2.578441 H 95.075711 L 93.7042,33.963174 Z m 2.293882,2.578441 v -5.61771 h 4.048699 v 1.228874 h -2.523578 v 0.965544 h 2.315108 v 1.228874 h -2.315108 v 0.965544 h 2.512608 v 1.228874 z m 6.693689,0 h -1.64581 l 1.85428,-5.61771 h 2.0847 l 1.85428,5.61771 h -1.64581 l -1.22887,-4.070645 h -0.0439 z m -0.30721,-2.216362 h 3.09412 v 1.141097 h -3.09412 z m 7.58242,2.216362 h -2.1615 v -5.61771 h 2.13955 q 0.8668,0 1.49769,0.337392 0.63364,0.334649 0.97652,0.965544 0.34562,0.628152 0.34562,1.505919 0,0.877767 -0.34288,1.508662 -0.34287,0.628152 -0.97103,0.965544 -0.62815,0.334649 -1.48397,0.334649 z m -0.63638,-1.294707 h 0.58152 q 0.41694,0 0.71044,-0.134408 0.29625,-0.134408 0.44986,-0.463571 0.15635,-0.329162 0.15635,-0.916169 0,-0.587007 -0.1591,-0.916169 -0.15635,-0.329163 -0.46082,-0.463571 -0.30174,-0.134408 -0.74062,-0.134408 h -0.53763 z m 11.97197,-1.514148 q 0,0.938114 -0.36482,1.582724 -0.36482,0.641867 -0.98474,0.973773 -0.61993,0.329162 -1.38249,0.329162 -0.76804,0 -1.38797,-0.331906 -0.61718,-0.334648 -0.982,-0.976515 -0.36208,-0.644611 -0.36208,-1.577238 0,-0.938114 0.36208,-1.579981 0.36482,-0.64461 0.982,-0.973772 0.61993,-0.331906 1.38797,-0.331906 0.76256,0 1.38249,0.331906 0.61992,0.329162 0.98474,0.973772 0.36482,0.641867 0.36482,1.579981 z m -1.56901,0 q 0,-0.504716 -0.1344,-0.850337 -0.13167,-0.348364 -0.39226,-0.52666 -0.25784,-0.18104 -0.63638,-0.18104 -0.37853,0 -0.63912,0.18104 -0.25785,0.178296 -0.39225,0.52666 -0.13167,0.345621 -0.13167,0.850337 0,0.504716 0.13167,0.85308 0.1344,0.345621 0.39225,0.52666 0.26059,0.178296 0.63912,0.178296 0.37854,0 0.63638,-0.178296 0.26059,-0.181039 0.39226,-0.52666 0.1344,-0.348364 0.1344,-0.85308 z m 2.69985,2.808855 v -5.61771 h 3.94995 v 1.228874 h -2.42483 v 0.965544 h 2.18344 v 1.228874 h -2.18344 v 2.194418 z m 8.32924,0 -1.65678,-5.61771 h 1.70067 l 0.76805,3.456208 h 0.0439 l 0.91068,-3.456208 h 1.33859 l 0.91069,3.46718 h 0.0439 l 0.76805,-3.46718 h 1.70067 l -1.65678,5.61771 h -1.45929 l -0.95457,-3.138018 h -0.0439 l -0.95457,3.138018 z m 7.45077,0 v -5.61771 h 4.0487 v 1.228874 h -2.52358 v 0.965544 h 2.31511 v 1.228874 h -2.31511 v 0.965544 h 2.51261 v 1.228874 z m 6.69369,0 h -1.64581 l 1.85428,-5.61771 h 2.0847 l 1.85428,5.61771 h -1.64581 l -1.22888,-4.070645 h -0.0439 z m -0.30722,-2.216362 h 3.09413 v 1.141097 h -3.09413 z m 5.42092,2.216362 v -5.61771 h 1.52512 v 4.388836 h 2.27123 v 1.228874 z m 4.0165,-4.388836 v -1.228874 h 4.88258 v 1.228874 h -1.6897 v 4.388836 h -1.50318 v -4.388836 z m 5.88175,4.388836 v -5.61771 h 1.52512 v 2.194418 h 2.01886 v -2.194418 h 1.52512 v 5.61771 h -1.52512 v -2.194418 h -2.01886 v 2.194418 z"
       id="text1"
       aria-label="THE THREAD OF WEALTH" /></g></svg>
