<?xml version="1.0" encoding="UTF-8" standalone="no"?>
<!-- Created with Inkscape (http://www.inkscape.org/) -->

<svg
   width="31.417133mm"
   height="31.417133mm"
   viewBox="0 0 31.417133 31.417133"
   version="1.1"
   id="svg1"
   xml:space="preserve"
   sodipodi:docname="threadofwealth.svg"
   inkscape:version="1.3.2 (091e20e, 2023-11-25)"
   inkscape:export-filename="threadofwealth-favicon.png"
   inkscape:export-xdpi="25.871233"
   inkscape:export-ydpi="25.871233"
   xmlns:inkscape="http://www.inkscape.org/namespaces/inkscape"
   xmlns:sodipodi="http://sodipodi.sourceforge.net/DTD/sodipodi-0.dtd"
   xmlns="http://www.w3.org/2000/svg"
   xmlns:svg="http://www.w3.org/2000/svg"><sodipodi:namedview
     id="namedview1"
     pagecolor="#ffffff"
     bordercolor="#000000"
     borderopacity="0.25"
     inkscape:showpageshadow="2"
     inkscape:pageopacity="0.0"
     inkscape:pagecheckerboard="0"
     inkscape:deskcolor="#d1d1d1"
     inkscape:document-units="mm"
     showgrid="false"
     inkscape:zoom="2.2796325"
     inkscape:cx="65.142079"
     inkscape:cy="64.922746"
     inkscape:window-width="1344"
     inkscape:window-height="449"
     inkscape:window-x="0"
     inkscape:window-y="25"
     inkscape:window-maximized="0"
     inkscape:current-layer="layer1" /><defs
     id="defs1" /><g
     inkscape:label="Ebene 1"
     inkscape:groupmode="layer"
     id="layer1"
     transform="translate(-18.496855,-18.260122)"><path
       style="fill:none;fill-opacity:0;stroke:#000000;stroke-width:0.675577;stroke-linecap:round;stroke-dasharray:none;stroke-opacity:1"
       d="M 38.181092,19.814354 19.885721,38.109725"
       id="path6" /><path
       style="fill:none;fill-opacity:0;stroke:#000000;stroke-width:0.675577;stroke-linecap:round;stroke-dasharray:none;stroke-opacity:1"
       d="M 48.530379,30.163641 30.235008,48.459012"
       id="path7" /><path
       d="m 40.554761,27.790001 a 3.9872443,3.9872444 0 0 1 -2.819408,6.806649 q -0.0093,-9e-6 -0.0186,-5.73e-4 l -6.930611,-0.420388 a 3.373822,3.3738222 0 1 0 3.382887,3.382887 l -0.06023,-0.99329 a 0.30671248,0.30671248 0 1 1 0.612297,-0.03717 l 0.06081,1.002769 q 5.72e-4,0.0093 5.73e-4,0.0186 a 3.9872443,3.9872444 0 1 1 -3.987244,-3.987244 q 0.0093,5e-6 0.01858,5.72e-4 l 6.930602,0.420359 a 3.373822,3.3738222 0 1 0 -3.382886,-3.382885 l 0.06023,0.993288 a 0.30671264,0.30671264 0 1 1 -0.612298,0.03717 l -0.06081,-1.002768 q -5.54e-4,-0.0093 -5.72e-4,-0.01858 a 3.9872443,3.9872444 0 0 1 6.80665,-2.81941 z"
       id="path1-2"
       style="fill:#000000;fill-opacity:1;stroke:none;stroke-width:0.0766779;stroke-opacity:1" /></g></svg>
