<?xml version="1.0" encoding="UTF-8" standalone="no"?>
<!-- Created with Inkscape (http://www.inkscape.org/) -->

<svg
   width="21.175781mm"
   height="21.175781mm"
   viewBox="0 0 21.175781 21.175781"
   version="1.1"
   id="svg1"
   xml:space="preserve"
   sodipodi:docname="syntheticloom.svg"
   inkscape:version="1.3.2 (091e20e, 2023-11-25)"
   inkscape:export-filename="syntheticloom-favicon.png"
   inkscape:export-xdpi="38.383472"
   inkscape:export-ydpi="38.383472"
   xmlns:inkscape="http://www.inkscape.org/namespaces/inkscape"
   xmlns:sodipodi="http://sodipodi.sourceforge.net/DTD/sodipodi-0.dtd"
   xmlns="http://www.w3.org/2000/svg"
   xmlns:svg="http://www.w3.org/2000/svg"><sodipodi:namedview
     id="namedview1"
     pagecolor="#ffffff"
     bordercolor="#000000"
     borderopacity="0.25"
     inkscape:showpageshadow="2"
     inkscape:pageopacity="0.0"
     inkscape:pagecheckerboard="0"
     inkscape:deskcolor="#d1d1d1"
     inkscape:document-units="mm"
     showgrid="false"
     inkscape:zoom="3.6735075"
     inkscape:cx="0.4083291"
     inkscape:cy="44.916201"
     inkscape:window-width="1440"
     inkscape:window-height="847"
     inkscape:window-x="0"
     inkscape:window-y="25"
     inkscape:window-maximized="1"
     inkscape:current-layer="layer1" /><defs
     id="defs1" /><g
     inkscape:label="Ebene 1"
     inkscape:groupmode="layer"
     id="layer1"
     transform="translate(-23.617187,-23.380859)"><path
       style="color:#000000;fill:#000000;stroke-linecap:round;-inkscape-stroke:none"
       d="M 23.617187,23.380859 V 44.556641 H 44.792969 V 23.380859 Z m 0.589844,0.589844 H 44.203125 V 43.966797 H 24.207031 Z"
       id="rect1" /><path
       d="m 40.554761,27.790001 a 3.9872443,3.9872444 0 0 1 -2.819408,6.806649 q -0.0093,-9e-6 -0.0186,-5.73e-4 l -6.930611,-0.420388 a 3.373822,3.3738222 0 1 0 3.382887,3.382887 l -0.06023,-0.99329 a 0.30671248,0.30671248 0 1 1 0.612297,-0.03717 l 0.06081,1.002769 q 5.72e-4,0.0093 5.73e-4,0.0186 a 3.9872443,3.9872444 0 1 1 -3.987244,-3.987244 q 0.0093,5e-6 0.01858,5.72e-4 l 6.930602,0.420359 a 3.373822,3.3738222 0 1 0 -3.382886,-3.382885 l 0.06023,0.993288 a 0.30671264,0.30671264 0 1 1 -0.612298,0.03717 l -0.06081,-1.002768 q -5.54e-4,-0.0093 -5.72e-4,-0.01858 a 3.9872443,3.9872444 0 0 1 6.80665,-2.81941 z"
       id="path1-2"
       style="fill:#000000;fill-opacity:1;stroke:none;stroke-width:0.077;stroke-dasharray:none;stroke-opacity:1" /><circle
       style="fill:#000000;fill-opacity:1;stroke:none;stroke-width:0.0770001;stroke-linecap:round;stroke-dasharray:none;stroke-opacity:1"
       id="path1"
       cx="25.538744"
       cy="25.302416"
       r="0.38307866" /><circle
       style="fill:#000000;fill-opacity:1;stroke:none;stroke-width:0.0770001;stroke-linecap:round;stroke-dasharray:none;stroke-opacity:1"
       id="circle2"
       cx="42.871414"
       cy="25.302416"
       r="0.38307866" /><circle
       style="fill:#000000;fill-opacity:1;stroke:none;stroke-width:0.0770001;stroke-linecap:round;stroke-dasharray:none;stroke-opacity:1"
       id="circle3"
       cx="25.538744"
       cy="42.635086"
       r="0.38307866" /><circle
       style="fill:#000000;fill-opacity:1;stroke:none;stroke-width:0.0770001;stroke-linecap:round;stroke-dasharray:none;stroke-opacity:1"
       id="circle4"
       cx="42.871414"
       cy="42.635086"
       r="0.38307866" /></g></svg>
