<?xml version="1.0" encoding="UTF-8" standalone="no"?>
<!-- Created with Inkscape (http://www.inkscape.org/) -->

<svg
   width="211.93124mm"
   height="30.853592mm"
   viewBox="0 0 211.93124 30.853592"
   version="1.1"
   id="svg1"
   xml:space="preserve"
   inkscape:version="1.3.2 (091e20e, 2023-11-25)"
   sodipodi:docname="divizend.svg"
   xmlns:inkscape="http://www.inkscape.org/namespaces/inkscape"
   xmlns:sodipodi="http://sodipodi.sourceforge.net/DTD/sodipodi-0.dtd"
   xmlns="http://www.w3.org/2000/svg"
   xmlns:svg="http://www.w3.org/2000/svg"><sodipodi:namedview
     id="namedview1"
     pagecolor="#ffffff"
     bordercolor="#000000"
     borderopacity="0.25"
     inkscape:showpageshadow="2"
     inkscape:pageopacity="0.0"
     inkscape:pagecheckerboard="0"
     inkscape:deskcolor="#d1d1d1"
     inkscape:document-units="mm"
     inkscape:zoom="0.2102413"
     inkscape:cx="401.91912"
     inkscape:cy="57.077272"
     inkscape:window-width="1344"
     inkscape:window-height="449"
     inkscape:window-x="0"
     inkscape:window-y="25"
     inkscape:window-maximized="0"
     inkscape:current-layer="layer1" /><defs
     id="defs1" /><g
     inkscape:label="Ebene 1"
     inkscape:groupmode="layer"
     id="layer1"
     transform="translate(0.88299655,-133.0732)"><g
       style="fill:none"
       id="g1"
       transform="matrix(0.26458333,0,0,0.26458333,-0.88299655,133.0732)"><path
         d="M 46.697,1.19 H 0 v 115.398 h 46.697 c 19.061,0 33.522,-4.708 43.028,-14.448 l 0.007,-0.007 c 9.48,-9.831 14.076,-24.32 14.076,-43.16 0,-18.944 -4.593,-33.439 -14.08,-43.163 C 80.223,5.956 65.761,1.19 46.697,1.19 Z m -3.192,24.356 c 9.878,0 17.027,2.759 21.765,8.012 l 0.012,0.013 c 4.738,5.15 7.283,13.493 7.283,25.402 0,11.672 -2.539,19.975 -7.295,25.247 -4.738,5.253 -11.887,8.012 -21.765,8.012 H 30.571 V 25.546 Z"
         id="path6"
         inkscape:connector-curvature="0"
         style="clip-rule:evenodd;fill:#a8a8a8;fill-opacity:1;fill-rule:evenodd" /><path
         d="m 161.749,1.19 h -30.572 v 115.398 h 30.572 z"
         id="path8"
         inkscape:connector-curvature="0"
         style="fill:#a8a8a8;fill-opacity:1" /><path
         d="M 257.92,116.588 303.081,1.176 270.51,1.365 244.513,79.357 218.511,1.19 h -35.043 l 43.08,115.398 z"
         id="path10"
         inkscape:connector-curvature="0"
         style="fill:#a8a8a8;fill-opacity:1" /><path
         d="m 351.509,1.214 h -30.571 v 115.398 h 30.571 z"
         id="path12"
         inkscape:connector-curvature="0"
         style="fill:#a8a8a8;fill-opacity:1" /><path
         d="m 743.89,0 h -46.7 v 115.398 h 46.7 c 19.06,0 33.52,-4.708 43.03,-14.448 v -0.008 C 796.4,91.111 801,76.623 801,57.783 801,38.839 796.41,24.343 786.92,14.62 777.42,4.766 762.95,0 743.89,0 Z m -3.19,24.356 c 9.87,0 17.02,2.759 21.76,8.012 l 0.01,0.012 c 4.74,5.151 7.29,13.493 7.29,25.403 0,11.672 -2.54,19.975 -7.3,25.247 -4.74,5.253 -11.89,8.012 -21.76,8.012 H 727.76 V 24.356 Z m 23.01,59.799 c 0,0 0,0 0,0 0.08,-0.089 0.16,-0.179 0.24,-0.27 -0.08,0.091 -0.16,0.181 -0.24,0.27 z m 1.81,-2.286 c 3.94,-5.671 5.92,-13.7 5.92,-24.086 0,-12.094 -2.58,-20.941 -7.73,-26.54 -5.15,-5.711 -12.82,-8.567 -23.01,-8.567 h -14.62 v 0 h 14.62 c 10.19,0 17.86,2.856 23.01,8.567 5.15,5.599 7.73,14.446 7.73,26.54 0,10.386 -1.98,18.415 -5.92,24.086 z m -66.65,31.849 V 1.679 v 0 112.039 h 45.02 c 0.73,0 1.46,-0.007 2.18,-0.021 -0.72,0.014 -1.45,0.021 -2.18,0.021 z"
         id="path14"
         inkscape:connector-curvature="0"
         style="clip-rule:evenodd;fill:#a8a8a8;fill-opacity:1;fill-rule:evenodd" /><path
         d="m 489.576,113.718 c -1.392,0 -2.52,-1.128 -2.52,-2.519 V 3.695 c 0,-1.391 1.128,-2.519 2.52,-2.519 1.392,0 2.52,1.128 2.52,2.519 v 107.504 c 0,1.391 -1.128,2.519 -2.52,2.519 z"
         id="path16"
         inkscape:connector-curvature="0"
         style="clip-rule:evenodd;fill:#a8a8a8;fill-opacity:1;fill-rule:evenodd" /><path
         d="m 499.654,113.718 c -1.391,0 -2.519,-1.128 -2.519,-2.519 V 3.695 c 0,-1.391 1.128,-2.519 2.519,-2.519 1.392,0 2.52,1.128 2.52,2.519 v 107.504 c 0,1.391 -1.128,2.519 -2.52,2.519 z"
         id="path18"
         inkscape:connector-curvature="0"
         style="clip-rule:evenodd;fill:#a8a8a8;fill-opacity:1;fill-rule:evenodd" /><path
         d="m 581.122,111.199 c 0,1.391 1.128,2.519 2.519,2.519 1.392,0 2.52,-1.128 2.52,-2.519 V 14.427 l 5.039,9.36 v 87.412 c 0,1.391 1.128,2.519 2.52,2.519 1.391,0 2.519,-1.128 2.519,-2.519 V 33.148 l 5.04,9.361 v 68.69 c 0,1.391 1.128,2.519 2.519,2.519 1.392,0 2.52,-1.128 2.52,-2.519 V 51.87 l 32.598,60.553 c 0.661,1.225 2.186,1.677 3.408,1.011 1.222,-0.667 1.676,-2.2 1.015,-3.425 L 585.985,2.767 c -0.37,-0.932 -1.28,-1.591 -2.344,-1.591 -1.391,0 -2.519,1.128 -2.519,2.519 z"
         id="path20"
         inkscape:connector-curvature="0"
         style="clip-rule:evenodd;fill:#a8a8a8;fill-opacity:1;fill-rule:evenodd" /><path
         d="m 655.967,113.405 c -1.222,0.666 -2.748,0.214 -3.408,-1.011 L 593.459,4.956 c -0.661,-1.224 -0.206,-2.757 1.016,-3.424 1.221,-0.666 2.747,-0.214 3.408,1.011 l 59.099,107.437 c 0.661,1.225 0.206,2.758 -1.015,3.425 z"
         id="path22"
         inkscape:connector-curvature="0"
         style="clip-rule:evenodd;fill:#a8a8a8;fill-opacity:1;fill-rule:evenodd" /><path
         d="M 644.952,66.09 V 3.695 c 0,-1.392 1.128,-2.52 2.519,-2.52 1.392,0 2.52,1.128 2.52,2.52 v 71.7 L 655.03,84.7 V 3.695 c 0,-1.391 1.128,-2.519 2.52,-2.519 1.391,0 2.519,1.128 2.519,2.519 v 90.31 l 5.04,9.305 V 3.695 c 0,-1.391 1.128,-2.519 2.519,-2.519 1.392,0 2.52,1.128 2.52,2.519 v 107.504 c 0,1.391 -1.128,2.519 -2.52,2.519 -0.817,0 -1.543,-0.388 -2.003,-0.991 -0.105,-0.117 -0.197,-0.246 -0.275,-0.39 L 606.09,4.913 c -0.661,-1.225 -0.206,-2.758 1.015,-3.425 1.222,-0.666 2.748,-0.214 3.408,1.011 z"
         id="path24"
         inkscape:connector-curvature="0"
         style="clip-rule:evenodd;fill:#a8a8a8;fill-opacity:1;fill-rule:evenodd" /><path
         d="m 509.733,1.175 c -1.392,0 -2.52,1.128 -2.52,2.52 v 0.02 10.058 10.079 23.516 10.079 10.078 23.517 10.078 10.079 c 0,1.391 1.128,2.519 2.52,2.519 h 41.993 c 1.392,0 2.52,-1.128 2.52,-2.519 0,-1.392 -1.128,-2.52 -2.52,-2.52 h -39.474 v -5.039 h 39.474 c 1.392,0 2.52,-1.128 2.52,-2.52 0,-1.392 -1.128,-2.52 -2.52,-2.52 h -39.474 v -5.039 h 39.474 c 1.392,0 2.52,-1.128 2.52,-2.519 0,-1.392 -1.128,-2.52 -2.52,-2.52 H 512.252 V 70.045 h 39.474 c 1.392,0 2.52,-1.128 2.52,-2.52 0,-1.391 -1.128,-2.519 -2.52,-2.519 h -39.474 v -5.04 h 39.474 c 1.392,0 2.52,-1.128 2.52,-2.519 0,-1.392 -1.128,-2.52 -2.52,-2.52 h -39.474 v -5.039 h 39.474 c 1.392,0 2.52,-1.128 2.52,-2.52 0,-1.391 -1.128,-2.519 -2.52,-2.519 H 512.252 V 26.371 h 39.474 c 1.392,0 2.52,-1.128 2.52,-2.519 0,-1.392 -1.128,-2.52 -2.52,-2.52 h -39.474 v -5.039 h 39.474 c 1.392,0 2.52,-1.128 2.52,-2.52 0,-1.391 -1.128,-2.519 -2.52,-2.519 H 512.252 V 6.215 h 39.474 c 1.392,0 2.52,-1.128 2.52,-2.52 0,-1.392 -1.128,-2.52 -2.52,-2.52 z"
         id="path26"
         inkscape:connector-curvature="0"
         style="clip-rule:evenodd;fill:#a8a8a8;fill-opacity:1;fill-rule:evenodd" /><path
         d="m 379.553,3.695 c 0,-1.392 1.128,-2.52 2.519,-2.52 h 78.948 c 1.392,0 2.52,1.128 2.52,2.52 0,1.392 -1.128,2.52 -2.52,2.52 h -78.948 c -1.391,0 -2.519,-1.128 -2.519,-2.52 z"
         id="path28"
         inkscape:connector-curvature="0"
         style="clip-rule:evenodd;fill:#a8a8a8;fill-opacity:1;fill-rule:evenodd" /><path
         d="m 379.553,13.773 c 0,-1.391 1.128,-2.519 2.519,-2.519 h 78.948 c 1.392,0 2.52,1.128 2.52,2.519 0,1.392 -1.128,2.52 -2.52,2.52 h -78.948 c -1.391,0 -2.519,-1.128 -2.519,-2.52 z"
         id="path30"
         inkscape:connector-curvature="0"
         style="clip-rule:evenodd;fill:#a8a8a8;fill-opacity:1;fill-rule:evenodd" /><path
         d="m 379.553,101.12 c 0,-1.391 1.128,-2.519 2.519,-2.519 h 78.948 c 1.392,0 2.52,1.128 2.52,2.519 0,1.392 -1.128,2.52 -2.52,2.52 h -78.948 c -1.391,0 -2.519,-1.128 -2.519,-2.52 z"
         id="path32"
         inkscape:connector-curvature="0"
         style="clip-rule:evenodd;fill:#a8a8a8;fill-opacity:1;fill-rule:evenodd" /><path
         d="m 382.072,21.332 c -1.391,0 -2.519,1.128 -2.519,2.52 0,1.392 1.128,2.52 2.519,2.52 h 43.863 l -45.839,63.071 c -0.094,0.128 -0.174,0.262 -0.24,0.399 -0.193,0.357 -0.303,0.766 -0.303,1.2 0,1.391 1.128,2.519 2.519,2.519 h 78.948 c 1.392,0 2.52,-1.128 2.52,-2.519 0,-1.392 -1.128,-2.52 -2.52,-2.52 h -44.006 l 45.961,-63.081 c 0.353,-0.433 0.565,-0.986 0.565,-1.589 0,-1.392 -1.128,-2.52 -2.52,-2.52 z m 74.516,5.04 h -9.211 l -45.56,62.15 h 8.95 z m -15.465,0 h -8.898 l -45.227,62.15 h 8.444 z"
         id="path34"
         inkscape:connector-curvature="0"
         style="clip-rule:evenodd;fill:#a8a8a8;fill-opacity:1;fill-rule:evenodd" /><path
         d="m 379.553,111.199 c 0,-1.392 1.128,-2.52 2.519,-2.52 h 78.948 c 1.392,0 2.52,1.128 2.52,2.52 0,1.391 -1.128,2.519 -2.52,2.519 h -78.948 c -1.391,0 -2.519,-1.128 -2.519,-2.519 z"
         id="path36"
         inkscape:connector-curvature="0"
         style="clip-rule:evenodd;fill:#a8a8a8;fill-opacity:1;fill-rule:evenodd" /></g></g></svg>
