<?xml version="1.0" encoding="UTF-8" standalone="no"?>
<!-- Created with Inkscape (http://www.inkscape.org/) -->

<svg
   width="18.016878mm"
   height="3.4776597mm"
   viewBox="0 0 18.016878 3.4776597"
   version="1.1"
   id="svg1"
   xml:space="preserve"
   inkscape:version="1.3.2 (091e20e, 2023-11-25)"
   sodipodi:docname="henophilia.svg"
   xmlns:inkscape="http://www.inkscape.org/namespaces/inkscape"
   xmlns:sodipodi="http://sodipodi.sourceforge.net/DTD/sodipodi-0.dtd"
   xmlns="http://www.w3.org/2000/svg"
   xmlns:svg="http://www.w3.org/2000/svg"><sodipodi:namedview
     id="namedview1"
     pagecolor="#ffffff"
     bordercolor="#000000"
     borderopacity="0.25"
     inkscape:showpageshadow="2"
     inkscape:pageopacity="0.0"
     inkscape:pagecheckerboard="0"
     inkscape:deskcolor="#d1d1d1"
     inkscape:document-units="mm"
     inkscape:zoom="6.3896211"
     inkscape:cx="24.492845"
     inkscape:cy="-28.561944"
     inkscape:window-width="1440"
     inkscape:window-height="768"
     inkscape:window-x="0"
     inkscape:window-y="25"
     inkscape:window-maximized="1"
     inkscape:current-layer="layer1" /><defs
     id="defs1" /><g
     inkscape:label="Ebene 1"
     inkscape:groupmode="layer"
     id="layer1"
     transform="translate(-7.5560679,-20.113261)"><path
       style="font-weight:900;font-size:3.52777px;line-height:1.3;font-family:Inter;-inkscape-font-specification:'Inter Heavy';letter-spacing:-0.079375px;fill:#a9a9a9;stroke-width:0.498"
       d="M 7.5560679,22.869331 V 20.30368 H 8.252602 v 1.002208 H 9.1746328 V 20.30368 H 9.871167 v 2.565651 H 9.1746328 V 21.867124 H 8.252602 v 1.002207 z m 3.4985051,0.03508 q -0.308178,0 -0.53117,-0.11776 -0.221738,-0.119012 -0.342003,-0.34075 -0.119012,-0.222991 -0.119012,-0.533676 0,-0.298156 0.120265,-0.521148 0.120265,-0.222991 0.339498,-0.347014 0.219232,-0.124023 0.517389,-0.124023 0.21798,0 0.394619,0.06765 0.176639,0.06765 0.301915,0.196683 0.125276,0.127782 0.192925,0.310684 0.06765,0.182903 0.06765,0.412158 v 0.160353 h -1.718785 v -0.380838 h 1.082384 q -0.0013,-0.08268 -0.04259,-0.14532 -0.04009,-0.06389 -0.10899,-0.09897 -0.06765,-0.03633 -0.15409,-0.03633 -0.08394,0 -0.154089,0.03633 -0.07015,0.03508 -0.112748,0.09772 -0.04134,0.06264 -0.04385,0.146573 v 0.410905 q 0,0.0927 0.03884,0.165364 0.03884,0.07266 0.111495,0.114001 0.07266,0.04134 0.175386,0.04134 0.07141,0 0.130287,-0.02004 0.06013,-0.02004 0.102727,-0.05763 0.04259,-0.03884 0.06264,-0.0927 h 0.63139 q -0.03257,0.200441 -0.154089,0.348267 -0.121518,0.146573 -0.321959,0.228002 -0.199189,0.08018 -0.466027,0.08018 z m 1.83484,-1.117462 v 1.082384 H 12.19789 v -1.924238 h 0.656446 v 0.365806 h 0.02004 q 0.06264,-0.182903 0.220485,-0.286882 0.159101,-0.103979 0.370817,-0.103979 0.2042,0 0.354531,0.09396 0.151584,0.0927 0.234266,0.255563 0.08393,0.162859 0.08268,0.372069 v 1.227704 h -0.691523 v -1.082384 q 0.0013,-0.142814 -0.07266,-0.224244 -0.07266,-0.08143 -0.202947,-0.08143 -0.08519,0 -0.149079,0.03758 -0.06264,0.03633 -0.09646,0.105232 -0.03382,0.06765 -0.03508,0.162858 z m 2.436166,1.117462 q -0.31319,0 -0.536181,-0.124024 -0.222991,-0.125275 -0.342003,-0.348267 -0.119012,-0.224244 -0.119012,-0.519895 0,-0.295651 0.119012,-0.518642 0.119012,-0.224244 0.342003,-0.348267 0.222991,-0.125276 0.536181,-0.125276 0.31319,0 0.536181,0.125276 0.222991,0.124023 0.342003,0.348267 0.119012,0.222991 0.119012,0.518642 0,0.295651 -0.119012,0.519895 -0.119012,0.222992 -0.342003,0.348267 -0.222991,0.124024 -0.536181,0.124024 z m 0.005,-0.511126 q 0.08769,0 0.151584,-0.05888 0.06389,-0.05888 0.09897,-0.16787 0.03508,-0.10899 0.03508,-0.259321 0,-0.151584 -0.03508,-0.259321 -0.03508,-0.10899 -0.09897,-0.16787 -0.06389,-0.05888 -0.151584,-0.05888 -0.0927,0 -0.159101,0.05888 -0.0664,0.05888 -0.101473,0.16787 -0.03508,0.107737 -0.03508,0.259321 0,0.150331 0.03508,0.259321 0.03508,0.10899 0.101473,0.16787 0.0664,0.05888 0.159101,0.05888 z m 1.193429,1.197638 v -2.645828 h 0.686512 v 0.33574 h 0.01503 q 0.03758,-0.09772 0.110243,-0.179145 0.07266,-0.08268 0.180397,-0.13154 0.107737,-0.05011 0.250552,-0.05011 0.190419,0 0.362047,0.101473 0.172881,0.101474 0.280618,0.319454 0.10899,0.21798 0.10899,0.566247 0,0.333234 -0.103979,0.552467 -0.102726,0.219233 -0.275607,0.32697 -0.171628,0.107738 -0.37708,0.107738 -0.135298,0 -0.241783,-0.04385 -0.105232,-0.0451 -0.180397,-0.121518 -0.07391,-0.07767 -0.114001,-0.175386 h -0.01002 v 1.037285 z m 0.67649,-1.683709 q 0,0.140309 0.03633,0.243036 0.03758,0.101473 0.105231,0.157847 0.0689,0.05512 0.164112,0.05512 0.09521,0 0.161606,-0.05387 0.06765,-0.05512 0.102726,-0.156595 0.03633,-0.102726 0.03633,-0.245541 0,-0.142814 -0.03633,-0.244288 -0.03508,-0.102726 -0.102726,-0.156595 -0.0664,-0.05512 -0.161606,-0.05512 -0.09521,0 -0.164112,0.05512 -0.06765,0.05387 -0.105231,0.156595 -0.03633,0.101474 -0.03633,0.244288 z m 2.220693,-0.120265 v 1.082384 H 18.729678 V 20.30368 h 0.666468 v 1.007219 h 0.02004 q 0.06514,-0.184156 0.216727,-0.286882 0.151584,-0.103979 0.364553,-0.103979 0.2042,0 0.354531,0.0927 0.151584,0.0927 0.234266,0.255563 0.08394,0.162859 0.08268,0.373322 v 1.227704 h -0.691523 v -1.082384 q 0.0013,-0.142814 -0.07141,-0.224244 -0.07141,-0.08143 -0.204199,-0.08143 -0.08394,0 -0.147826,0.03758 -0.06264,0.03633 -0.09772,0.105232 -0.03383,0.06765 -0.03508,0.162858 z m 1.509124,1.082384 v -1.924238 h 0.691523 v 1.924238 z m 0.347014,-2.124679 q -0.141562,0 -0.241782,-0.0927 -0.100221,-0.0927 -0.100221,-0.222991 0,-0.130287 0.100221,-0.222991 0.10022,-0.0927 0.240529,-0.0927 0.141562,0 0.24053,0.0927 0.100221,0.0927 0.100221,0.222991 0,0.130287 -0.100221,0.222991 -0.09897,0.0927 -0.239277,0.0927 z m 1.307428,-0.440972 v 2.565651 H 21.893245 V 20.30368 Z m 0.271395,2.565651 v -1.924238 h 0.691523 v 1.924238 z m 0.347015,-2.124679 q -0.141562,0 -0.241783,-0.0927 -0.100221,-0.0927 -0.100221,-0.222991 0,-0.130287 0.100221,-0.222991 0.100221,-0.0927 0.24053,-0.0927 0.141562,0 0.24053,0.0927 0.10022,0.0927 0.10022,0.222991 0,0.130287 -0.10022,0.222991 -0.09897,0.0927 -0.239277,0.0927 z m 1.152086,2.154746 q -0.184156,0 -0.325718,-0.06013 -0.140309,-0.06139 -0.220485,-0.185408 -0.08018,-0.124023 -0.08018,-0.315696 0,-0.157847 0.05387,-0.269343 0.05387,-0.112748 0.150331,-0.184155 0.09646,-0.07141 0.224244,-0.10899 0.129034,-0.03758 0.278112,-0.04886 0.161606,-0.01253 0.259321,-0.03007 0.09897,-0.01879 0.142815,-0.05136 0.04385,-0.03383 0.04385,-0.08895 v -0.005 q 0,-0.07517 -0.05763,-0.115254 -0.05763,-0.04009 -0.147826,-0.04009 -0.09897,0 -0.161606,0.04385 -0.06139,0.04259 -0.07391,0.13154 h -0.636402 q 0.01253,-0.175387 0.111496,-0.323212 0.100221,-0.149078 0.291893,-0.238024 0.191672,-0.0902 0.478554,-0.0902 0.206705,0 0.370817,0.04886 0.164111,0.0476 0.279365,0.134045 0.115254,0.08519 0.175386,0.200441 0.06139,0.114001 0.06139,0.248047 v 1.317902 h -0.646424 v -0.270596 h -0.01503 q -0.05763,0.107738 -0.140309,0.174134 -0.08143,0.0664 -0.186661,0.09646 -0.10398,0.03007 -0.229255,0.03007 z m 0.225496,-0.435961 q 0.07892,0 0.147826,-0.03257 0.07015,-0.03257 0.114001,-0.09396 0.04385,-0.06139 0.04385,-0.149079 v -0.160353 q -0.02756,0.01127 -0.05888,0.0213 -0.03007,0.01002 -0.06514,0.01879 -0.03382,0.0088 -0.07266,0.01629 -0.03758,0.0075 -0.07892,0.01378 -0.08018,0.01253 -0.131539,0.04134 -0.05011,0.02756 -0.07517,0.0689 -0.0238,0.04009 -0.0238,0.0902 0,0.08018 0.05637,0.122771 0.05637,0.04259 0.144067,0.04259 z"
       id="text1"
       aria-label="Henophilia" /></g></svg>
