<?xml version="1.0" encoding="UTF-8" standalone="no"?>
<!-- Created with Inkscape (http://www.inkscape.org/) -->

<svg
   width="17.949942mm"
   height="1.9717208mm"
   viewBox="0 0 17.949941 1.9717208"
   version="1.1"
   id="svg1"
   xml:space="preserve"
   sodipodi:docname="hermesloom.svg"
   inkscape:version="1.3.2 (091e20e, 2023-11-25)"
   inkscape:export-filename="threadofwealth-favicon-white.png"
   inkscape:export-xdpi="25.871233"
   inkscape:export-ydpi="25.871233"
   xmlns:inkscape="http://www.inkscape.org/namespaces/inkscape"
   xmlns:sodipodi="http://sodipodi.sourceforge.net/DTD/sodipodi-0.dtd"
   xmlns="http://www.w3.org/2000/svg"
   xmlns:svg="http://www.w3.org/2000/svg"><sodipodi:namedview
     id="namedview1"
     pagecolor="#ffffff"
     bordercolor="#000000"
     borderopacity="0.25"
     inkscape:showpageshadow="2"
     inkscape:pageopacity="0.0"
     inkscape:pagecheckerboard="0"
     inkscape:deskcolor="#d1d1d1"
     inkscape:document-units="mm"
     showgrid="false"
     inkscape:zoom="6.1153254"
     inkscape:cx="31.314769"
     inkscape:cy="-0.1635236"
     inkscape:window-width="1344"
     inkscape:window-height="449"
     inkscape:window-x="0"
     inkscape:window-y="25"
     inkscape:window-maximized="0"
     inkscape:current-layer="layer1" /><defs
     id="defs1" /><g
     inkscape:label="Ebene 1"
     inkscape:groupmode="layer"
     id="layer1"
     transform="translate(-25.21013,-26.780493)"><path
       d="m 25.21013,28.72562 v -1.945127 h 0.528072 v 0.759815 h 0.69903 v -0.759815 h 0.528072 v 1.945127 h -0.528072 v -0.759815 h -0.69903 v 0.759815 z m 2.643749,0.02659 q -0.233643,0 -0.402702,-0.08928 -0.168109,-0.09023 -0.259287,-0.258338 -0.09023,-0.169059 -0.09023,-0.404601 0,-0.226045 0.09118,-0.395104 0.09118,-0.169059 0.257387,-0.263086 0.16621,-0.09403 0.392255,-0.09403 0.16526,0 0.299177,0.05129 0.133918,0.05129 0.228895,0.149114 0.09498,0.09688 0.146264,0.235542 0.05129,0.138667 0.05129,0.312475 v 0.12157 h -1.303084 v -0.28873 h 0.820601 q -9.5e-4,-0.06269 -0.03229,-0.110173 -0.03039,-0.04844 -0.08263,-0.07503 -0.05129,-0.02754 -0.116822,-0.02754 -0.06363,0 -0.116821,0.02754 -0.05319,0.02659 -0.08548,0.07408 -0.03134,0.04749 -0.03324,0.111123 v 0.311524 q 0,0.07028 0.02944,0.12537 0.02944,0.05509 0.08453,0.08643 0.05509,0.03134 0.132968,0.03134 0.05414,0 0.09878,-0.0152 0.04559,-0.0152 0.07788,-0.04369 0.03229,-0.02944 0.04749,-0.07028 h 0.478684 q -0.02469,0.151963 -0.116822,0.264036 -0.09213,0.111123 -0.244091,0.172858 -0.151013,0.06078 -0.353314,0.06078 z m 0.858182,-0.02659 v -1.458845 h 0.509076 v 0.277332 h 0.0152 q 0.03989,-0.153862 0.126319,-0.225095 0.08738,-0.07123 0.2042,-0.07123 0.03419,0 0.06743,0.0057 0.03419,0.0047 0.06553,0.01425 v 0.447341 q -0.03894,-0.0133 -0.09593,-0.01994 -0.05699,-0.0066 -0.09783,-0.0066 -0.07693,0 -0.138666,0.03514 -0.06079,0.03419 -0.09593,0.09688 -0.03514,0.06173 -0.03514,0.145315 v 0.759815 z m 1.089928,0 v -1.458845 h 0.497679 v 0.277332 h 0.0152 q 0.04559,-0.136766 0.155762,-0.216547 0.110174,-0.07978 0.262137,-0.07978 0.153862,0 0.264985,0.08168 0.111123,0.08073 0.133918,0.214647 h 0.0152 q 0.03704,-0.133917 0.157662,-0.214647 0.12062,-0.08168 0.283031,-0.08168 0.209899,0 0.340017,0.134868 0.131068,0.134867 0.131068,0.359012 v 0.983961 h -0.524272 v -0.850993 q 0,-0.09593 -0.04844,-0.150063 -0.04844,-0.05509 -0.130119,-0.05509 -0.08073,0 -0.128219,0.05509 -0.04654,0.05414 -0.04654,0.150063 v 0.850993 h -0.501478 v -0.850993 q 0,-0.09593 -0.04844,-0.150063 -0.04844,-0.05509 -0.130118,-0.05509 -0.05414,0 -0.09308,0.02469 -0.03894,0.02469 -0.06079,0.07123 -0.02089,0.04559 -0.02089,0.109223 v 0.850993 z m 3.145225,0.02659 q -0.233644,0 -0.402703,-0.08928 -0.168109,-0.09023 -0.259287,-0.258338 -0.09023,-0.169059 -0.09023,-0.404601 0,-0.226045 0.09118,-0.395104 0.09118,-0.169059 0.257388,-0.263086 0.166209,-0.09403 0.392254,-0.09403 0.16526,0 0.299178,0.05129 0.133917,0.05129 0.228894,0.149114 0.09498,0.09688 0.146264,0.235542 0.05129,0.138667 0.05129,0.312475 v 0.12157 h -1.303083 v -0.28873 h 0.8206 q -9.49e-4,-0.06269 -0.03229,-0.110173 -0.03039,-0.04844 -0.08263,-0.07503 -0.05129,-0.02754 -0.116821,-0.02754 -0.06364,0 -0.116822,0.02754 -0.05319,0.02659 -0.08548,0.07408 -0.03134,0.04749 -0.03324,0.111123 v 0.311524 q 0,0.07028 0.02944,0.12537 0.02944,0.05509 0.08453,0.08643 0.05509,0.03134 0.132968,0.03134 0.05414,0 0.09878,-0.0152 0.04559,-0.0152 0.07788,-0.04369 0.03229,-0.02944 0.04749,-0.07028 h 0.478684 q -0.02469,0.151963 -0.116822,0.264036 -0.09213,0.111123 -0.24409,0.172858 -0.151014,0.06078 -0.353314,0.06078 z m 2.191657,-1.010555 h -0.482483 q -0.0038,-0.04464 -0.03134,-0.07693 -0.02754,-0.03229 -0.07123,-0.04939 -0.04274,-0.01805 -0.09498,-0.01805 -0.06743,0 -0.115872,0.02469 -0.04844,0.02469 -0.04749,0.07028 -9.5e-4,0.03229 0.02754,0.05984 0.02944,0.02754 0.113023,0.04274 l 0.296328,0.05319 q 0.224145,0.04084 0.333369,0.137716 0.110173,0.09593 0.111123,0.257388 -9.5e-4,0.155762 -0.09308,0.270684 -0.09118,0.113972 -0.249789,0.176657 -0.157662,0.06173 -0.359963,0.06173 -0.334318,0 -0.523322,-0.136767 -0.188055,-0.136767 -0.209899,-0.360912 h 0.520473 q 0.01045,0.06933 0.06838,0.107324 0.05889,0.03704 0.148164,0.03704 0.07218,0 0.118722,-0.02469 0.04749,-0.02469 0.04844,-0.07028 -9.5e-4,-0.04179 -0.04179,-0.06648 -0.03989,-0.02469 -0.12537,-0.03989 l -0.258337,-0.04559 q -0.223196,-0.03894 -0.334319,-0.148164 -0.111123,-0.109224 -0.110173,-0.281132 -9.5e-4,-0.151963 0.07978,-0.257387 0.08168,-0.106375 0.232693,-0.161461 0.151963,-0.05604 0.359963,-0.05604 0.316273,0 0.498629,0.131069 0.183305,0.131068 0.192803,0.362811 z m 0.474476,-0.961166 v 0.786409 h -0.341916 v -0.786409 z m 0.618436,1.945127 v -1.945127 h 0.528072 v 1.519631 h 0.786409 v 0.425496 z m 2.168863,0.02659 q -0.237443,0 -0.406501,-0.09403 -0.169059,-0.09498 -0.259287,-0.264036 -0.09023,-0.170009 -0.09023,-0.394154 0,-0.224146 0.09023,-0.393205 0.09023,-0.170009 0.259287,-0.264036 0.169058,-0.09498 0.406501,-0.09498 0.237442,0 0.406501,0.09498 0.169059,0.09403 0.259287,0.264036 0.09023,0.169059 0.09023,0.393205 0,0.224145 -0.09023,0.394154 -0.09023,0.169059 -0.259287,0.264036 -0.169059,0.09403 -0.406501,0.09403 z m 0.0038,-0.387506 q 0.06648,0 0.114922,-0.04464 0.04844,-0.04464 0.07503,-0.127269 0.02659,-0.08263 0.02659,-0.196602 0,-0.114923 -0.02659,-0.196603 -0.02659,-0.08263 -0.07503,-0.127269 -0.04844,-0.04464 -0.114922,-0.04464 -0.07028,0 -0.120621,0.04464 -0.05034,0.04464 -0.07693,0.127269 -0.02659,0.08168 -0.02659,0.196603 0,0.113972 0.02659,0.196602 0.02659,0.08263 0.07693,0.127269 0.05034,0.04464 0.120621,0.04464 z m 1.599003,0.387506 q -0.237442,0 -0.406501,-0.09403 -0.169059,-0.09498 -0.259287,-0.264036 -0.09023,-0.170009 -0.09023,-0.394154 0,-0.224146 0.09023,-0.393205 0.09023,-0.170009 0.259287,-0.264036 0.169059,-0.09498 0.406501,-0.09498 0.237442,0 0.406501,0.09498 0.169059,0.09403 0.259287,0.264036 0.09023,0.169059 0.09023,0.393205 0,0.224145 -0.09023,0.394154 -0.09023,0.169059 -0.259287,0.264036 -0.169059,0.09403 -0.406501,0.09403 z m 0.0038,-0.387506 q 0.06648,0 0.114922,-0.04464 0.04844,-0.04464 0.07503,-0.127269 0.02659,-0.08263 0.02659,-0.196602 0,-0.114923 -0.02659,-0.196603 -0.02659,-0.08263 -0.07503,-0.127269 -0.04844,-0.04464 -0.114922,-0.04464 -0.07028,0 -0.120621,0.04464 -0.05034,0.04464 -0.07693,0.127269 -0.02659,0.08168 -0.02659,0.196603 0,0.113972 0.02659,0.196602 0.02659,0.08263 0.07693,0.127269 0.05034,0.04464 0.120621,0.04464 z m 0.896174,0.360912 V 27.266775 H 41.4011 v 0.277332 h 0.0152 q 0.04559,-0.136766 0.155762,-0.216547 0.110173,-0.07978 0.262136,-0.07978 0.153863,0 0.264986,0.08168 0.111123,0.08073 0.133917,0.214647 h 0.0152 q 0.03704,-0.133917 0.157662,-0.214647 0.120621,-0.08168 0.283031,-0.08168 0.209899,0 0.340018,0.134868 0.131068,0.134867 0.131068,0.359012 V 28.72562 H 42.6358 v -0.850993 q 0,-0.09593 -0.04844,-0.150063 -0.04844,-0.05509 -0.130118,-0.05509 -0.08073,0 -0.128219,0.05509 -0.04654,0.05414 -0.04654,0.150063 v 0.850993 h -0.501478 v -0.850993 q 0,-0.09593 -0.04844,-0.150063 -0.04844,-0.05509 -0.130119,-0.05509 -0.05414,0 -0.09308,0.02469 -0.03894,0.02469 -0.06079,0.07123 -0.02089,0.04559 -0.02089,0.109223 v 0.850993 z"
       id="text1"
       style="font-weight:900;font-size:2.67455px;line-height:1.3;font-family:Inter;-inkscape-font-specification:'Inter Heavy';letter-spacing:-0.0687917px;fill:#a8a8a8;stroke-width:0.447304;stroke-linecap:round"
       aria-label="Hermes' Loom" /></g></svg>
