<?xml version="1.0" encoding="UTF-8" standalone="no"?>
<!-- Created with Inkscape (http://www.inkscape.org/) -->

<svg
   width="55.813759mm"
   height="9.6150122mm"
   viewBox="0 0 55.813759 9.6150122"
   version="1.1"
   id="svg1"
   xml:space="preserve"
   inkscape:version="1.3.2 (091e20e, 2023-11-25)"
   sodipodi:docname="microsolidarity.svg"
   xmlns:inkscape="http://www.inkscape.org/namespaces/inkscape"
   xmlns:sodipodi="http://sodipodi.sourceforge.net/DTD/sodipodi-0.dtd"
   xmlns="http://www.w3.org/2000/svg"
   xmlns:svg="http://www.w3.org/2000/svg"><sodipodi:namedview
     id="namedview1"
     pagecolor="#ffffff"
     bordercolor="#000000"
     borderopacity="0.25"
     inkscape:showpageshadow="2"
     inkscape:pageopacity="0.0"
     inkscape:pagecheckerboard="0"
     inkscape:deskcolor="#d1d1d1"
     inkscape:document-units="mm"
     inkscape:zoom="2.5551005"
     inkscape:cx="99.21332"
     inkscape:cy="-1.7611832"
     inkscape:window-width="1440"
     inkscape:window-height="768"
     inkscape:window-x="0"
     inkscape:window-y="25"
     inkscape:window-maximized="1"
     inkscape:current-layer="layer1" /><defs
     id="defs1" /><g
     inkscape:label="Ebene 1"
     inkscape:groupmode="layer"
     id="layer1"
     transform="translate(-75.509916,-160.16055)"><path
       style="font-weight:900;font-size:6.35405px;line-height:1.3;font-family:Roboto;-inkscape-font-specification:'Roboto Heavy';letter-spacing:-0.185208px;stroke-width:1.06268;stroke-linecap:round;fill:#a9a9a9;fill-opacity:1"
       d="m 92.295696,162.5958 1.008333,3.14289 1.00523,-3.14289 h 1.433385 v 4.51733 h -1.092103 v -1.05487 l 0.105487,-2.15939 -1.092102,3.21426 h -0.719795 l -1.095205,-3.21736 0.105488,2.16249 v 1.05487 h -1.089 v -4.51733 z m 5.008483,4.51733 h -1.048666 v -3.35698 h 1.048666 z m -1.110717,-4.22259 q 0,-0.22338 0.161333,-0.3661 0.161333,-0.14272 0.418846,-0.14272 0.257513,0 0.418846,0.14272 0.161333,0.14272 0.161333,0.3661 0,0.22338 -0.161333,0.3661 -0.161333,0.14272 -0.418846,0.14272 -0.257513,0 -0.418846,-0.14272 -0.161333,-0.14272 -0.161333,-0.3661 z m 2.988714,3.47797 q 0.220282,0 0.341282,-0.11789 0.121,-0.121 0.117898,-0.33508 h 0.980414 q 0,0.55226 -0.39713,0.90595 -0.394028,0.35369 -1.017643,0.35369 -0.732205,0 -1.154154,-0.45918 -0.421949,-0.45918 -0.421949,-1.27205 v -0.0434 q 0,-0.50882 0.186154,-0.89664 0.189257,-0.39092 0.542949,-0.59879 0.353692,-0.21098 0.837692,-0.21098 0.654641,0 1.039361,0.363 0.38472,0.363 0.38472,0.98352 h -0.980414 q 0,-0.26062 -0.127206,-0.40023 -0.127205,-0.13962 -0.341282,-0.13962 -0.406435,0 -0.474692,0.51813 -0.02172,0.16443 -0.02172,0.45297 0,0.50572 0.121,0.70118 0.121,0.19546 0.384718,0.19546 z m 3.727124,-1.66607 -0.34438,-0.0248 q -0.49331,0 -0.63293,0.31025 v 2.12526 h -1.04556 v -3.35698 h 0.98041 l 0.0341,0.43126 q 0.26372,-0.49331 0.73531,-0.49331 0.16753,0 0.29164,0.0372 z m -0.0518,0.70118 q 0,-0.50262 0.19546,-0.89354 0.19547,-0.39403 0.56157,-0.605 0.3661,-0.21098 0.85941,-0.21098 0.75392,0 1.18828,0.46849 0.43436,0.46539 0.43436,1.26895 v 0.0372 q 0,0.78495 -0.43746,1.24723 -0.43436,0.45918 -1.17898,0.45918 -0.71669,0 -1.15105,-0.42815 -0.43436,-0.43126 -0.46848,-1.16657 z m 1.04557,0.0652 q 0,0.46538 0.14582,0.68256 0.14582,0.21718 0.43125,0.21718 0.55847,0 0.57088,-0.85941 v -0.10548 q 0,-0.90285 -0.57708,-0.90285 -0.52433,0 -0.56777,0.77874 z m 4.22663,0.70118 q 0,-0.13341 -0.13961,-0.21408 -0.13962,-0.0807 -0.53054,-0.16754 -0.39092,-0.0869 -0.64533,-0.22648 -0.25441,-0.14272 -0.38782,-0.34439 -0.13341,-0.20166 -0.13341,-0.46228 0,-0.46228 0.38161,-0.76013 0.38162,-0.30095 0.99903,-0.30095 0.66395,0 1.06728,0.30095 0.40333,0.30095 0.40333,0.79116 h -1.04866 q 0,-0.40334 -0.42506,-0.40334 -0.16443,0 -0.27612,0.0931 -0.1117,0.09 -0.1117,0.22649 0,0.13961 0.13652,0.22648 0.13651,0.0869 0.43436,0.14272 0.30094,0.0558 0.52743,0.13341 0.75703,0.26062 0.75703,0.93387 0,0.45918 -0.40954,0.74772 -0.40644,0.28854 -1.05487,0.28854 -0.43126,0 -0.76944,-0.15513 -0.33818,-0.15513 -0.52743,-0.42195 -0.18926,-0.26682 -0.18926,-0.56156 h 0.97731 q 0.006,0.23269 0.15513,0.34128 0.14892,0.10549 0.38161,0.10549 0.21408,0 0.31956,-0.0869 0.10859,-0.0869 0.10859,-0.22649 z m 1.17992,-0.76633 q 0,-0.50262 0.19547,-0.89354 0.19546,-0.39403 0.56156,-0.605 0.3661,-0.21098 0.85941,-0.21098 0.75392,0 1.18828,0.46849 0.43436,0.46539 0.43436,1.26895 v 0.0372 q 0,0.78495 -0.43746,1.24723 -0.43436,0.45918 -1.17898,0.45918 -0.71669,0 -1.15105,-0.42815 -0.43436,-0.43126 -0.46848,-1.16657 z m 1.04557,0.0652 q 0,0.46538 0.14582,0.68256 0.14582,0.21718 0.43125,0.21718 0.55847,0 0.57088,-0.85941 v -0.10548 q 0,-0.90285 -0.57708,-0.90285 -0.52433,0 -0.56777,0.77874 z m 3.57199,1.64436 h -1.04866 v -4.76554 h 1.04866 z m 1.56154,0 h -1.04867 v -3.35698 h 1.04867 z m -1.11072,-4.22259 q 0,-0.22338 0.16133,-0.3661 0.16134,-0.14272 0.41885,-0.14272 0.25751,0 0.41885,0.14272 0.16133,0.14272 0.16133,0.3661 0,0.22338 -0.16133,0.3661 -0.16134,0.14272 -0.41885,0.14272 -0.25751,0 -0.41885,-0.14272 -0.16133,-0.14272 -0.16133,-0.3661 z m 1.43744,2.51928 q 0,-0.79736 0.34438,-1.25654 0.34438,-0.45918 0.96179,-0.45918 0.44988,0 0.75703,0.3537 v -1.70021 h 1.04867 v 4.76554 h -0.94008 l -0.0527,-0.3599 q -0.32267,0.42195 -0.81908,0.42195 -0.5988,0 -0.94938,-0.45918 -0.35059,-0.45918 -0.35059,-1.30618 z m 1.04556,0.0652 q 0,0.89353 0.52123,0.89353 0.34749,0 0.49641,-0.29164 v -1.27825 q -0.14272,-0.29785 -0.4902,-0.29785 -0.484,0 -0.52434,0.78185 z m 4.36625,1.63815 q -0.0558,-0.10239 -0.0993,-0.30095 -0.28854,0.363 -0.80667,0.363 -0.47469,0 -0.80666,-0.28544 -0.33198,-0.28853 -0.33198,-0.72289 0,-0.54605 0.40334,-0.82529 0.40333,-0.27923 1.17276,-0.27923 h 0.32267 v -0.17684 q 0,-0.46228 -0.40023,-0.46228 -0.37231,0 -0.37231,0.3661 h -1.04556 q 0,-0.4871 0.41264,-0.79116 0.41574,-0.30405 1.05797,-0.30405 0.64223,0 1.01454,0.31336 0.37231,0.31336 0.38162,0.85941 v 1.48613 q 0.006,0.46228 0.14272,0.70739 v 0.0527 z m -0.65464,-0.68257 q 0.19546,0 0.32267,-0.0838 0.13031,-0.0838 0.18615,-0.18926 v -0.53674 h -0.30405 q -0.54605,0 -0.54605,0.4902 0,0.14272 0.0962,0.23269 0.0962,0.0869 0.2451,0.0869 z m 3.98154,-1.72812 -0.34439,-0.0248 q -0.49331,0 -0.63292,0.31025 v 2.12526 h -1.04557 v -3.35698 h 0.98041 l 0.0341,0.43126 q 0.26372,-0.49331 0.73531,-0.49331 0.16754,0 0.29164,0.0372 z m 1.29471,2.41069 h -1.04867 v -3.35698 h 1.04867 z m -1.11072,-4.22259 q 0,-0.22338 0.16133,-0.3661 0.16134,-0.14272 0.41885,-0.14272 0.25751,0 0.41885,0.14272 0.16133,0.14272 0.16133,0.3661 0,0.22338 -0.16133,0.3661 -0.16134,0.14272 -0.41885,0.14272 -0.25751,0 -0.41885,-0.14272 -0.16133,-0.14272 -0.16133,-0.3661 z m 2.78705,0.031 v 0.83458 h 0.55226 v 0.726 h -0.55226 v 1.53577 q 0,0.18926 0.0683,0.26372 0.0682,0.0745 0.26992,0.0745 0.15513,0 0.26061,-0.0186 v 0.74772 q -0.28233,0.09 -0.58948,0.09 -0.53985,0 -0.79736,-0.25441 -0.25752,-0.25441 -0.25752,-0.77254 v -1.66608 h -0.42815 v -0.726 h 0.42815 v -0.83458 z m 2.12,2.72715 0.55846,-1.89257 h 1.12002 l -1.36823,3.91854 -0.059,0.14272 q -0.29164,0.65154 -1.03005,0.65154 -0.20477,0 -0.43125,-0.062 v -0.74772 h 0.13651 q 0.22028,0 0.33508,-0.0651 0.11789,-0.0621 0.17374,-0.22649 l 0.0838,-0.22339 -1.16656,-3.388 h 1.11692 z"
       id="text1"
       aria-label="Microsolidarity" /><path
       style="fill:#a9a9a9;fill-opacity:1;stroke-width:0.680959"
       d="m 78.952443,169.58735 c -1.640458,-0.63212 -2.937722,-2.28709 -3.3088,-4.22119 -0.289108,-1.50686 -0.131011,-2.18992 0.686463,-2.96588 2.476156,-2.35041 5.507903,-2.89856 7.842579,-1.41795 1.698075,1.07688 2.320805,3.39721 1.414312,5.26977 -1.148567,2.37264 -4.612955,4.11422 -6.634554,3.33525 z m 3.461051,-1.00517 c 1.904011,-0.90076 2.956794,-2.33592 2.964626,-4.0414 0.0054,-1.11984 -0.33062,-1.89307 -1.124864,-2.59042 -0.833229,-0.73159 -1.762956,-1.03941 -3.118372,-1.03244 -1.597224,0.008 -2.621517,0.36176 -3.80465,1.31324 -0.958279,0.77066 -1.05162,0.90948 -1.104173,1.64213 -0.03158,0.44016 -0.0058,1.0755 0.05732,1.41185 l 0.114729,0.61156 0.483188,-0.44339 c 0.901009,-0.82678 1.613817,-1.21912 2.738292,-1.5072 1.372106,-0.35151 2.163224,-0.22737 2.932763,0.46022 0.500478,0.44716 0.57759,0.63336 0.57759,1.39458 0,0.53783 -0.123969,1.06771 -0.319677,1.3664 -0.431572,0.65867 -1.587909,1.39922 -2.617683,1.67644 l -0.846221,0.22781 0.990939,0.012 c 0.733298,0.009 1.273101,-0.12147 2.07619,-0.5014 z m -1.66502,-0.44993 c 0.83871,-0.35147 1.693716,-1.12631 1.826462,-1.65523 0.170158,-0.67797 -0.352287,-1.62449 -1.089848,-1.97448 -0.522248,-0.24782 -0.778085,-0.26449 -1.542714,-0.10051 -1.747485,0.37477 -3.028311,1.24695 -3.028311,2.06214 0,0.69484 0.2698,0.70434 0.941007,0.0332 0.809661,-0.80966 1.783058,-1.01334 2.453381,-0.51336 0.263607,0.19661 0.507547,0.50143 0.542092,0.67737 0.08942,0.45538 -0.331062,1.15924 -0.866569,1.45059 -0.62237,0.3386 -0.03241,0.3543 0.7645,0.0204 z m -0.93984,-0.48407 c 0.392764,-0.21021 0.456937,-0.71401 0.132297,-1.03865 -0.372901,-0.3729 -1.352604,-0.26198 -1.670925,0.18917 -0.267052,0.37851 -0.260433,0.4263 0.09983,0.72069 0.43753,0.35752 0.929176,0.40153 1.438798,0.12879 z"
       id="path1" /></g></svg>
