<?xml version="1.0" encoding="UTF-8" standalone="no"?>
<!-- Created with Inkscape (http://www.inkscape.org/) -->

<svg
   width="15.889945mm"
   height="15.636375mm"
   viewBox="0 0 15.889945 15.636375"
   version="1.1"
   id="svg1"
   xml:space="preserve"
   inkscape:version="1.3.2 (091e20e, 2023-11-25)"
   sodipodi:docname="the-garden.svg"
   xmlns:inkscape="http://www.inkscape.org/namespaces/inkscape"
   xmlns:sodipodi="http://sodipodi.sourceforge.net/DTD/sodipodi-0.dtd"
   xmlns="http://www.w3.org/2000/svg"
   xmlns:svg="http://www.w3.org/2000/svg"><sodipodi:namedview
     id="namedview1"
     pagecolor="#ffffff"
     bordercolor="#000000"
     borderopacity="0.25"
     inkscape:showpageshadow="2"
     inkscape:pageopacity="0.0"
     inkscape:pagecheckerboard="0"
     inkscape:deskcolor="#d1d1d1"
     inkscape:document-units="mm"
     inkscape:zoom="5.508652"
     inkscape:cx="46.381583"
     inkscape:cy="36.578822"
     inkscape:window-width="1440"
     inkscape:window-height="768"
     inkscape:window-x="0"
     inkscape:window-y="25"
     inkscape:window-maximized="1"
     inkscape:current-layer="layer1" /><defs
     id="defs1" /><g
     inkscape:label="Ebene 1"
     inkscape:groupmode="layer"
     id="layer1"
     transform="translate(-9.2955899,-19.742709)"><path
       style="fill:#a9a9a9;fill-opacity:1;stroke-width:1"
       d="m 17.088567,35.376409 c -0.033,-0.0017 -0.148707,-0.0072 -0.25713,-0.01229 -0.108423,-0.0051 -0.231846,-0.01455 -0.274272,-0.02105 -0.04243,-0.0065 -0.109923,-0.01423 -0.149993,-0.01719 -0.04007,-0.003 -0.103709,-0.01087 -0.141421,-0.01758 -0.03771,-0.0067 -0.109066,-0.01779 -0.158563,-0.02461 -0.0495,-0.0068 -0.120851,-0.01845 -0.158564,-0.02584 -0.03771,-0.0074 -0.08978,-0.0175 -0.115708,-0.02247 -0.08615,-0.0165 -0.346626,-0.07546 -0.432836,-0.09796 -0.07216,-0.01883 -0.196263,-0.05379 -0.25713,-0.07242 -0.02828,-0.0087 -0.08614,-0.02635 -0.128565,-0.03932 -0.04242,-0.01297 -0.115708,-0.03691 -0.162849,-0.0532 -0.04714,-0.01629 -0.103066,-0.03507 -0.124279,-0.04172 -0.02121,-0.0067 -0.04628,-0.01582 -0.05571,-0.02038 -0.0094,-0.0046 -0.03835,-0.01572 -0.06428,-0.02483 -0.102305,-0.03591 -0.125135,-0.04477 -0.14703,-0.05703 -0.01251,-0.007 -0.02794,-0.01277 -0.03428,-0.01282 -0.0063,-4.3e-5 -0.03082,-0.0096 -0.05439,-0.02116 -0.02357,-0.01159 -0.04646,-0.0212 -0.05086,-0.02135 -0.0044,-1.47e-4 -0.02369,-0.0076 -0.04285,-0.01664 -0.01917,-0.009 -0.06377,-0.02867 -0.09913,-0.0437 -0.08828,-0.03752 -0.123767,-0.05422 -0.325698,-0.153257 -0.199402,-0.09779 -0.361564,-0.184075 -0.501154,-0.266649 -0.121774,-0.07204 -0.152319,-0.09031 -0.210239,-0.125751 -0.108743,-0.06655 -0.333307,-0.216575 -0.439663,-0.293732 -0.05561,-0.04034 -0.109698,-0.07914 -0.120196,-0.08621 -0.0444,-0.02991 -0.317772,-0.242198 -0.331525,-0.257452 -0.0024,-0.0026 -0.04286,-0.0369 -0.09,-0.0762 -0.09064,-0.07556 -0.174336,-0.149057 -0.273804,-0.240458 -0.09254,-0.08504 -0.429041,-0.422874 -0.512373,-0.51441 -0.322896,-0.354688 -0.639639,-0.77005 -0.876844,-1.149853 -0.03634,-0.05819 -0.07268,-0.115441 -0.08074,-0.127226 -0.01327,-0.01938 -0.08974,-0.15205 -0.147167,-0.25532 -0.102104,-0.183602 -0.26909,-0.51958 -0.3331719,-0.670348 -0.01503,-0.03535 -0.03469,-0.07996 -0.0437,-0.09913 -0.009,-0.01917 -0.01649,-0.03845 -0.01664,-0.04286 -1.47e-4,-0.0044 -0.0098,-0.02729 -0.02135,-0.05086 -0.01159,-0.02357 -0.02112,-0.04769 -0.02116,-0.0536 -4.3e-5,-0.0059 -0.0078,-0.02514 -0.01722,-0.04273 -0.0094,-0.01759 -0.01714,-0.03788 -0.01714,-0.04509 0,-0.0072 -0.0071,-0.02655 -0.01583,-0.04298 -0.0087,-0.01643 -0.01864,-0.04144 -0.02209,-0.05558 -0.0034,-0.01414 -0.01156,-0.03728 -0.01803,-0.05143 -0.01123,-0.02453 -0.07627,-0.218921 -0.119019,-0.355696 -0.04616,-0.147686 -0.125454,-0.44321 -0.146037,-0.544258 -0.0067,-0.033 -0.01625,-0.07735 -0.02117,-0.09857 -0.02431,-0.104828 -0.05771,-0.294218 -0.08238,-0.46712 -0.0074,-0.05185 -0.01905,-0.132851 -0.02588,-0.179991 -0.0126,-0.08688 -0.0179,-0.149482 -0.04309,-0.508892 -0.02126,-0.30329 -0.0067,-0.841253 0.03094,-1.145311 0.0047,-0.03771 0.01619,-0.131642 0.02559,-0.208733 0.0094,-0.07709 0.01906,-0.143344 0.02146,-0.147229 0.0024,-0.0039 0.01021,-0.04868 0.01735,-0.09954 0.0071,-0.05086 0.01829,-0.113815 0.02477,-0.139899 0.0065,-0.02608 0.01434,-0.06671 0.01746,-0.09028 0.0031,-0.02357 0.0129,-0.07178 0.02173,-0.107137 0.0088,-0.03535 0.02243,-0.09128 0.0302,-0.12428 0.01486,-0.06305 0.03629,-0.15093 0.05958,-0.244273 0.0076,-0.03064 0.02101,-0.07885 0.0297,-0.107137 0.0087,-0.02828 0.02638,-0.08614 0.03931,-0.128566 0.03978,-0.130536 0.10705,-0.332826 0.120141,-0.361277 0.0068,-0.01485 0.01243,-0.0315 0.01243,-0.03698 0,-0.0055 0.0075,-0.02804 0.01675,-0.05013 0.0092,-0.02209 0.03032,-0.07549 0.04691,-0.118667 0.01659,-0.04318 0.03562,-0.09139 0.04229,-0.107137 0.0067,-0.01575 0.02092,-0.04984 0.03166,-0.07577 0.02737,-0.06605 0.0716,-0.166237 0.1173229,-0.265701 0.08686,-0.188965 0.283645,-0.559934 0.376955,-0.71061 0.01048,-0.01693 0.02552,-0.04235 0.03342,-0.05649 0.03841,-0.06878 0.241134,-0.374503 0.33247,-0.501403 0.135088,-0.187689 0.384022,-0.499792 0.502464,-0.629969 0.202034,-0.222051 0.472995,-0.495379 0.620289,-0.625707 0.03728,-0.03298 0.09159,-0.08119 0.120697,-0.107113 0.06218,-0.05539 0.249773,-0.209556 0.331704,-0.272597 0.08673,-0.06674 0.197506,-0.150294 0.21824,-0.164624 0.01015,-0.007 0.07461,-0.05197 0.143249,-0.09989 0.06864,-0.04792 0.147112,-0.101218 0.174391,-0.118431 0.02728,-0.01721 0.07853,-0.05018 0.11388,-0.07326 0.03535,-0.02308 0.09248,-0.0585 0.126934,-0.0787 0.03446,-0.02021 0.07565,-0.04446 0.09153,-0.05388 0.21006,-0.124691 0.512069,-0.280703 0.750059,-0.387464 0.02593,-0.01163 0.05382,-0.02466 0.06199,-0.02895 0.0082,-0.0043 0.03516,-0.01587 0.06,-0.02573 0.07164,-0.02844 0.118176,-0.04725 0.178003,-0.07196 0.03064,-0.01265 0.075,-0.03021 0.09857,-0.03903 0.02357,-0.0088 0.06985,-0.02613 0.102852,-0.03848 0.106235,-0.03976 0.178734,-0.06501 0.233452,-0.0813 0.0294,-0.0088 0.05741,-0.01836 0.06225,-0.02135 0.02111,-0.01305 0.32504,-0.09881 0.527117,-0.148736 0.201706,-0.04984 0.223659,-0.05485 0.290375,-0.06625 0.03714,-0.0063 0.07957,-0.01546 0.09428,-0.02025 0.01471,-0.0048 0.06532,-0.01445 0.112462,-0.02146 0.04714,-0.007 0.122351,-0.0185 0.167134,-0.02553 0.178323,-0.02799 0.265708,-0.03963 0.359982,-0.04794 0.05421,-0.0048 0.164135,-0.01534 0.244274,-0.02348 0.207397,-0.02105 0.915968,-0.02117 1.109944,-1.84e-4 0.07307,0.0079 0.169492,0.01673 0.214275,0.01962 0.04478,0.0029 0.114209,0.01053 0.154278,0.017 0.04007,0.0065 0.111423,0.01599 0.158564,0.02118 0.04714,0.0052 0.103066,0.01331 0.124279,0.01804 0.02122,0.0047 0.08292,0.01585 0.137136,0.0247 0.163364,0.02667 0.285879,0.04996 0.308556,0.05867 0.01178,0.0045 0.04264,0.01109 0.06857,0.0146 0.02593,0.0035 0.07028,0.01324 0.09857,0.02164 0.02828,0.0084 0.06685,0.0178 0.08571,0.02091 0.01885,0.0031 0.05935,0.01289 0.08999,0.02175 0.03064,0.0089 0.07885,0.02232 0.107138,0.02991 0.04882,0.0131 0.08406,0.02303 0.222846,0.06282 0.033,0.0095 0.07157,0.02148 0.08571,0.02672 0.01414,0.0052 0.09514,0.03236 0.179992,0.06029 0.08485,0.02792 0.185133,0.06288 0.222846,0.07767 0.03771,0.0148 0.084,0.03198 0.102851,0.03819 0.01885,0.0062 0.04586,0.01743 0.06,0.02493 0.01414,0.0075 0.03007,0.01367 0.03539,0.0137 0.0087,4.8e-5 0.06763,0.02414 0.136028,0.05564 0.01414,0.0065 0.0585,0.02588 0.09857,0.04303 0.244272,0.104566 0.560375,0.265999 0.872613,0.445639 0.192964,0.111018 0.52463,0.329955 0.712954,0.47063 0.357986,0.267409 0.592721,0.469819 0.90045,0.77645 0.246512,0.245633 0.336704,0.343356 0.518136,0.561401 0.143974,0.173027 0.32109,0.403205 0.391873,0.509273 0.0081,0.01217 0.03126,0.04575 0.05143,0.07463 0.05782,0.0828 0.141998,0.210779 0.202254,0.307482 0.01175,0.01885 0.02848,0.04473 0.03717,0.05751 0.0087,0.01277 0.0158,0.02492 0.0158,0.027 0,0.0021 0.01537,0.02826 0.03415,0.0582 0.01879,0.02994 0.04011,0.066 0.04738,0.08014 0.0073,0.01414 0.02475,0.045 0.03886,0.06857 0.0141,0.02357 0.0315,0.05443 0.03865,0.06857 0.0072,0.01414 0.03193,0.06043 0.05504,0.102852 0.04757,0.08733 0.166313,0.325353 0.200963,0.402837 0.01265,0.02829 0.0303,0.06685 0.03922,0.08571 0.03344,0.07064 0.06,0.132017 0.06005,0.138748 2.9e-5,0.0038 0.0061,0.01853 0.01354,0.03267 0.0074,0.01414 0.02676,0.06043 0.04297,0.102852 0.01621,0.04243 0.03363,0.08442 0.03869,0.09333 0.0051,0.0089 0.01503,0.0359 0.02213,0.06 0.0071,0.02409 0.01599,0.04767 0.01974,0.05238 0.0037,0.0047 0.01286,0.02785 0.02024,0.05143 0.0074,0.02357 0.02528,0.07564 0.03977,0.115708 0.01449,0.04007 0.03391,0.09696 0.04316,0.126423 0.0092,0.02946 0.02498,0.0796 0.03496,0.111422 0.02143,0.06829 0.05516,0.184471 0.0728,0.250702 0.0069,0.02593 0.01962,0.07221 0.02826,0.102852 0.03913,0.13879 0.08009,0.323403 0.124563,0.561401 0.0347,0.185722 0.04718,0.260678 0.05206,0.312841 0.0029,0.03064 0.01076,0.0885 0.01754,0.128565 0.0068,0.04007 0.0181,0.142279 0.02516,0.227132 0.0071,0.08485 0.01713,0.190919 0.02237,0.235702 0.01243,0.105953 0.01241,0.737881 -1.7e-5,0.861386 -0.0052,0.05185 -0.01529,0.17142 -0.02238,0.2657 -0.0071,0.09428 -0.01846,0.204204 -0.02525,0.244274 -0.0068,0.04007 -0.01485,0.103709 -0.01789,0.141421 -0.003,0.03771 -0.01088,0.09557 -0.0174,0.128565 -0.0065,0.033 -0.01769,0.101739 -0.0248,0.152756 -0.0071,0.05102 -0.01511,0.09629 -0.01778,0.100608 -0.0027,0.0043 -0.01231,0.04936 -0.02143,0.100089 -0.02333,0.129832 -0.07381,0.347148 -0.114998,0.495076 -0.01182,0.04243 -0.02888,0.104138 -0.03792,0.137136 -0.009,0.033 -0.02035,0.06964 -0.02512,0.08143 -0.0048,0.01178 -0.02334,0.06771 -0.04126,0.124279 -0.01792,0.05657 -0.03752,0.112495 -0.04356,0.12428 -0.006,0.01178 -0.011,0.02595 -0.01103,0.03149 -5.3e-5,0.01008 -0.04191,0.120436 -0.06494,0.17122 -0.0067,0.01485 -0.01225,0.02963 -0.01225,0.03285 0,0.0056 -0.03979,0.101043 -0.06439,0.154419 -0.0065,0.01414 -0.02185,0.04885 -0.03406,0.07714 -0.10966,0.253878 -0.326662,0.666127 -0.494025,0.938524 -0.06319,0.102849 -0.192294,0.298609 -0.260017,0.394266 -0.02169,0.03064 -0.04607,0.06535 -0.05417,0.07714 -0.06425,0.09349 -0.27402,0.360957 -0.39989,0.50988 -0.177252,0.209714 -0.477104,0.52055 -0.673354,0.698021 -0.146436,0.132423 -0.153488,0.138691 -0.218561,0.194252 -0.305494,0.260844 -0.582247,0.462741 -0.985665,0.719064 -0.264722,0.168199 -0.717731,0.407034 -0.998521,0.52644 -0.03535,0.01504 -0.08013,0.03486 -0.09951,0.04406 -0.01937,0.0092 -0.03807,0.01672 -0.04156,0.01672 -0.0035,0 -0.01849,0.0055 -0.03334,0.01221 -0.05107,0.02311 -0.138477,0.05757 -0.16843,0.06642 -0.0165,0.0049 -0.03386,0.01193 -0.03857,0.01569 -0.0094,0.0075 -0.06502,0.02712 -0.278558,0.09826 -0.07778,0.02591 -0.152992,0.05138 -0.167134,0.05659 -0.03774,0.0139 -0.246559,0.07379 -0.34284,0.09831 -0.153418,0.03908 -0.185814,0.04724 -0.248559,0.06261 -0.03772,0.0092 -0.084,0.01921 -0.102852,0.02216 -0.01885,0.003 -0.06707,0.01272 -0.107138,0.02172 -0.100875,0.02264 -0.252472,0.04964 -0.362745,0.0646 -0.05102,0.0069 -0.09547,0.01426 -0.09878,0.0163 -0.0033,0.0021 -0.05414,0.008 -0.112945,0.01332 -0.05881,0.0053 -0.145494,0.01511 -0.192634,0.02185 -0.155888,0.02228 -0.807268,0.04381 -1.011378,0.03343 z m 0.445692,-0.663372 c 0.289543,-0.02416 0.576571,-0.05798 0.651396,-0.07676 0.01885,-0.0047 0.06514,-0.01277 0.102852,-0.01787 0.03771,-0.0051 0.08785,-0.01452 0.111423,-0.02095 0.02357,-0.0064 0.07138,-0.01598 0.106255,-0.02122 0.03487,-0.0052 0.0668,-0.01164 0.07096,-0.01421 0.0042,-0.0026 0.0412,-0.01175 0.08231,-0.0204 0.09875,-0.02078 0.233084,-0.05688 0.460442,-0.123727 0.04242,-0.01248 0.09835,-0.02869 0.124279,-0.03602 0.02593,-0.0073 0.051,-0.01646 0.05571,-0.02029 0.0047,-0.0038 0.02593,-0.0114 0.04714,-0.01686 0.03702,-0.0095 0.08886,-0.02782 0.17142,-0.06053 0.02121,-0.0084 0.07135,-0.02752 0.111423,-0.04248 0.04007,-0.01496 0.08828,-0.034 0.107138,-0.04231 0.01885,-0.0083 0.05357,-0.02326 0.07714,-0.03322 0.142063,-0.06005 0.181847,-0.0777 0.278557,-0.123556 0.05893,-0.02794 0.122566,-0.05868 0.141422,-0.06831 0.43397,-0.221654 0.748199,-0.416924 1.122801,-0.697738 0.415136,-0.3112 0.851898,-0.725375 1.187787,-1.12636 0.08273,-0.09876 0.191269,-0.234215 0.233513,-0.291414 0.02263,-0.03064 0.0683,-0.09235 0.101483,-0.137136 0.05058,-0.06825 0.207667,-0.301662 0.276887,-0.411408 0.0104,-0.0165 0.02628,-0.04157 0.03529,-0.05571 0.04712,-0.07403 0.120343,-0.201782 0.211246,-0.368552 0.05464,-0.100236 0.198598,-0.396006 0.250309,-0.51426 0.0268,-0.06128 0.05386,-0.121066 0.06015,-0.132851 0.0063,-0.01178 0.0154,-0.03493 0.02026,-0.05143 0.0049,-0.0165 0.02107,-0.05892 0.03602,-0.09428 0.03068,-0.07256 0.04335,-0.106794 0.09354,-0.252844 0.01944,-0.05657 0.04062,-0.116351 0.04707,-0.132851 0.0064,-0.0165 0.02216,-0.06471 0.0349,-0.107137 0.01275,-0.04242 0.03194,-0.106066 0.04264,-0.141422 0.01071,-0.03535 0.03004,-0.10478 0.04296,-0.154278 0.01292,-0.0495 0.03077,-0.114751 0.03965,-0.145007 0.0089,-0.03025 0.01616,-0.06041 0.01616,-0.06701 0,-0.0066 0.0098,-0.05512 0.0218,-0.107837 0.03886,-0.170905 0.055,-0.249282 0.06033,-0.292974 0.0029,-0.02357 0.01028,-0.06407 0.01646,-0.09 0.0062,-0.02592 0.01365,-0.07028 0.01659,-0.09857 0.0029,-0.02828 0.01291,-0.103495 0.02215,-0.167134 0.01582,-0.108976 0.03466,-0.2958 0.05143,-0.509975 0.0095,-0.121916 0.0095,-0.56397 -1.8e-5,-0.68568 -0.01429,-0.182096 -0.0434,-0.469082 -0.05116,-0.504343 -0.0043,-0.0196 -0.0123,-0.07613 -0.01775,-0.125625 -0.0055,-0.0495 -0.01499,-0.111209 -0.0212,-0.137136 -0.0062,-0.02593 -0.01364,-0.06643 -0.01652,-0.09 -0.0048,-0.03959 -0.01772,-0.102781 -0.05244,-0.25713 -0.0074,-0.033 -0.01915,-0.08692 -0.02605,-0.119819 -0.0069,-0.0329 -0.01822,-0.07919 -0.02515,-0.102852 -0.0069,-0.02367 -0.0186,-0.06617 -0.02595,-0.09445 -0.03759,-0.144791 -0.04649,-0.1754 -0.10711,-0.368554 -0.04033,-0.128487 -0.05439,-0.169607 -0.0931,-0.272263 -0.0093,-0.02467 -0.02911,-0.07765 -0.04401,-0.117717 -0.0149,-0.04007 -0.03425,-0.09021 -0.043,-0.111423 -0.04206,-0.101986 -0.07113,-0.170228 -0.08605,-0.201982 -0.009,-0.01917 -0.01637,-0.03741 -0.01637,-0.04055 0,-0.01412 -0.173389,-0.370401 -0.236525,-0.486007 -0.01931,-0.03535 -0.04855,-0.08935 -0.06498,-0.119994 -0.04984,-0.09295 -0.109119,-0.193067 -0.20806,-0.351411 -0.11309,-0.180986 -0.25677,-0.38811 -0.385381,-0.555552 -0.01925,-0.02507 -0.05183,-0.06749 -0.07239,-0.09428 -0.02056,-0.02679 -0.05568,-0.06992 -0.07804,-0.09584 -0.02236,-0.02592 -0.07428,-0.08764 -0.115361,-0.137136 -0.186836,-0.225101 -0.496545,-0.534572 -0.767571,-0.766982 -0.196346,-0.16837 -0.30089,-0.248887 -0.595848,-0.458906 -0.02579,-0.01836 -0.122994,-0.08114 -0.227131,-0.146685 -0.03064,-0.01928 -0.06535,-0.04166 -0.07714,-0.04973 -0.01178,-0.0081 -0.09278,-0.05422 -0.179991,-0.102564 -0.08721,-0.04834 -0.164349,-0.09117 -0.17142,-0.09517 -0.0244,-0.01379 -0.295825,-0.147532 -0.34284,-0.168932 -0.113413,-0.05162 -0.143173,-0.06421 -0.278558,-0.117842 -0.182157,-0.07216 -0.302043,-0.114576 -0.509974,-0.180445 -0.136949,-0.04338 -0.356527,-0.09928 -0.535688,-0.136372 -0.03771,-0.0078 -0.10328,-0.02158 -0.145707,-0.03061 -0.04242,-0.009 -0.101886,-0.01895 -0.132132,-0.02204 -0.03024,-0.0031 -0.06689,-0.0092 -0.08143,-0.01358 -0.01453,-0.0044 -0.092,-0.01543 -0.172137,-0.02457 -0.08014,-0.0091 -0.174944,-0.02027 -0.210677,-0.02474 -0.144893,-0.01813 -0.607768,-0.02789 -0.865868,-0.01826 -0.226107,0.0084 -0.422397,0.02194 -0.435639,0.02997 -0.0027,0.0016 -0.05502,0.0073 -0.116306,0.01258 -0.06128,0.0053 -0.14035,0.01527 -0.175706,0.02219 -0.03535,0.0069 -0.102852,0.01842 -0.149992,0.02558 -0.181532,0.02756 -0.305118,0.05309 -0.561401,0.115959 -0.141083,0.03461 -0.177777,0.0442 -0.227131,0.05937 -0.02829,0.0087 -0.08614,0.02635 -0.128565,0.03924 -0.04243,0.01289 -0.115709,0.03665 -0.162849,0.05281 -0.04714,0.01615 -0.103066,0.03464 -0.124279,0.04108 -0.02121,0.0064 -0.06942,0.02391 -0.107138,0.03881 -0.03772,0.0149 -0.084,0.03228 -0.102852,0.03862 -0.01885,0.0063 -0.06707,0.02561 -0.107138,0.04282 -0.04007,0.01722 -0.0825,0.03454 -0.09428,0.0385 -0.02155,0.0072 -0.07827,0.03195 -0.197134,0.08592 -0.09001,0.04087 -0.419517,0.206256 -0.498643,0.250288 -0.131316,0.07308 -0.260362,0.14692 -0.281317,0.160982 -0.01178,0.0079 -0.03686,0.02388 -0.05571,0.03549 -0.269016,0.165676 -0.54148,0.360413 -0.804714,0.575152 -0.199706,0.162913 -0.354194,0.30318 -0.554153,0.503139 -0.247503,0.247502 -0.481681,0.514217 -0.659831,0.751508 -0.02782,0.03706 -0.05376,0.07124 -0.05764,0.07596 -0.0078,0.0095 -0.08483,0.116862 -0.104984,0.146341 -0.0071,0.01034 -0.03214,0.04674 -0.05571,0.08089 -0.06121,0.08867 -0.12119,0.179339 -0.141683,0.21418 -0.0097,0.0165 -0.03461,0.057 -0.05535,0.08999 -0.03288,0.05233 -0.06823,0.112266 -0.13812,0.234243 -0.04261,0.07436 -0.07926,0.144094 -0.156722,0.29821 -0.08266,0.164446 -0.101317,0.203593 -0.142499,0.298934 -0.01222,0.02828 -0.02755,0.063 -0.03406,0.07714 -0.03261,0.07077 -0.06439,0.14985 -0.06439,0.160236 0,0.0064 -0.0052,0.01926 -0.01154,0.02856 -0.0064,0.0093 -0.01841,0.03619 -0.0268,0.05976 -0.0084,0.02357 -0.02635,0.07371 -0.0399,0.111424 -0.05768,0.160488 -0.143774,0.426179 -0.161086,0.497118 -0.0046,0.01885 -0.01466,0.05743 -0.02236,0.08571 -0.03615,0.132866 -0.04672,0.174831 -0.05504,0.218561 -0.0049,0.02593 -0.01475,0.06823 -0.02183,0.09401 -0.0071,0.02578 -0.01286,0.05494 -0.01286,0.06481 0,0.0099 -0.0074,0.04664 -0.01636,0.0817 -0.009,0.03507 -0.01885,0.08497 -0.02191,0.110895 -0.003,0.02592 -0.01279,0.08764 -0.02166,0.137136 -0.0089,0.0495 -0.01852,0.116994 -0.02146,0.149992 -0.0029,0.033 -0.01073,0.09278 -0.01731,0.132851 -0.01881,0.114635 -0.04152,0.53229 -0.04148,0.762819 4.7e-5,0.213634 0.0226,0.659571 0.03774,0.746276 0.0046,0.02626 0.0142,0.103396 0.02135,0.17142 0.0072,0.06802 0.01657,0.137179 0.02091,0.153678 0.0044,0.0165 0.0138,0.07557 0.02101,0.131266 0.0072,0.0557 0.01531,0.104827 0.01801,0.109179 0.0027,0.0044 0.01234,0.04942 0.02144,0.100151 0.04074,0.227049 0.108464,0.494821 0.197298,0.780063 0.04236,0.136016 0.05199,0.16535 0.07666,0.23356 0.01449,0.04007 0.03239,0.09214 0.03977,0.115708 0.0074,0.02357 0.01638,0.04671 0.01999,0.05143 0.0036,0.0047 0.01337,0.02978 0.02169,0.05571 0.0083,0.02593 0.01797,0.051 0.02145,0.05571 0.0035,0.0047 0.01118,0.024 0.01713,0.04286 0.0059,0.01886 0.01366,0.03814 0.01714,0.04286 0.0035,0.0047 0.0112,0.024 0.01713,0.04285 0.0059,0.01886 0.01589,0.04393 0.02212,0.05571 0.0062,0.01179 0.03483,0.07479 0.06356,0.140012 0.02873,0.06522 0.0558,0.125004 0.06015,0.13285 0.0044,0.0078 0.03119,0.06248 0.05964,0.121404 0.06795,0.14072 0.169658,0.331157 0.235949,0.441776 0.0094,0.01573 0.03377,0.0568 0.05409,0.09126 0.06087,0.103215 0.06917,0.116317 0.178008,0.281213 0.408832,0.61939 0.863038,1.123554 1.456385,1.616574 0.05383,0.04473 0.178361,0.142179 0.217854,0.170479 0.01974,0.01414 0.054,0.03959 0.07615,0.05654 0.238196,0.182362 0.639374,0.425362 0.97022,0.587677 0.168001,0.08242 0.193214,0.0942 0.308557,0.1441 0.04007,0.01734 0.08442,0.03667 0.09857,0.04297 0.02769,0.01233 0.08217,0.03327 0.137136,0.05272 0.01885,0.0067 0.042,0.01579 0.05143,0.02027 0.02852,0.01355 0.134553,0.05176 0.177086,0.06382 0.02197,0.0062 0.04491,0.01439 0.05096,0.01814 0.0061,0.0037 0.03436,0.01355 0.0629,0.02178 0.02854,0.0082 0.08467,0.02517 0.124744,0.03762 0.07871,0.02446 0.16042,0.04709 0.248559,0.06883 0.03064,0.0076 0.08271,0.02096 0.115709,0.02978 0.033,0.0088 0.07735,0.01847 0.09857,0.02146 0.02122,0.003 0.05593,0.01072 0.07714,0.0172 0.02121,0.0065 0.06942,0.01608 0.107138,0.02133 0.03771,0.0053 0.08016,0.01317 0.09433,0.0176 0.01417,0.0044 0.07365,0.01398 0.13217,0.02123 0.05852,0.0072 0.122154,0.01671 0.141403,0.02101 0.01925,0.0043 0.110193,0.01417 0.202099,0.02191 0.0919,0.0077 0.197956,0.01702 0.235669,0.02064 0.03771,0.0036 0.209346,0.0071 0.381409,0.0079 0.247577,0.001 0.355755,-0.0023 0.518546,-0.01587 z M 12.593078,30.14703 c -0.344723,-0.01151 -0.668047,-0.153677 -0.841422,-0.36998 -0.025,-0.03119 -0.04752,-0.05864 -0.05005,-0.061 -0.02427,-0.02264 -0.09797,-0.168647 -0.12365,-0.24497 -0.03993,-0.118655 -0.0562,-0.225573 -0.05623,-0.369456 -3e-5,-0.147503 0.01814,-0.24549 0.0651,-0.351107 0.0066,-0.01485 0.01201,-0.02897 0.01201,-0.03137 0,-0.0115 0.07525,-0.135539 0.107567,-0.177319 0.208238,-0.269178 0.573303,-0.479801 0.94238,-0.543704 0.09801,-0.01697 0.1654,-0.0169 0.268925,2.74e-4 0.181337,0.03008 0.397438,0.126992 0.46652,0.209201 0.0311,0.03701 0.05046,0.08433 0.04488,0.109711 -0.0094,0.04295 -0.102979,0.121397 -0.196213,0.164551 -0.08582,0.03973 -0.130069,0.03469 -0.139536,-0.01586 -0.01421,-0.07588 -0.04934,-0.124347 -0.126075,-0.173943 -0.213655,-0.138092 -0.527182,-0.119383 -0.75167,0.04485 -0.100107,0.07324 -0.176635,0.164841 -0.237976,0.284852 -0.04684,0.09164 -0.06686,0.161099 -0.08233,0.285721 -0.02125,0.171121 0.01229,0.360871 0.09358,0.529425 0.116205,0.240942 0.303334,0.398269 0.552755,0.464724 0.08177,0.02178 0.355746,0.02171 0.445692,-1.28e-4 0.06419,-0.01558 0.165116,-0.05037 0.187591,-0.06465 0.03215,-0.02043 0.04682,-0.278905 0.02292,-0.403796 -0.01855,-0.09696 -0.03749,-0.126643 -0.09236,-0.144751 -0.05334,-0.0176 -0.0753,-0.04037 -0.0753,-0.07807 0,-0.03029 0.0043,-0.03647 0.04972,-0.07142 0.09761,-0.07511 0.277001,-0.162949 0.376767,-0.184491 0.0335,-0.0072 0.03791,-0.0061 0.05357,0.01381 0.01618,0.02057 0.01706,0.03508 0.01706,0.280151 0,0.252335 0.01315,0.42827 0.03507,0.469225 0.0155,0.02896 0.0072,0.04882 -0.03771,0.08982 -0.08377,0.07653 -0.284428,0.187452 -0.456188,0.252178 -0.179071,0.06748 -0.316696,0.09282 -0.475402,0.08752 z m 7.409628,-2.17e-4 c -0.125178,-0.0061 -0.272846,-0.05435 -0.386782,-0.126479 -0.07795,-0.04935 -0.190078,-0.169754 -0.228201,-0.245054 -0.06559,-0.129553 -0.08116,-0.244965 -0.0504,-0.373735 0.06325,-0.264814 0.276277,-0.490508 0.566513,-0.600197 0.141579,-0.05351 0.331044,-0.08051 0.443066,-0.06315 0.249901,0.03874 0.467096,0.226281 0.495244,0.427641 0.0066,0.04713 -0.0097,0.08248 -0.06246,0.135348 -0.05059,0.05072 -0.07867,0.07186 -0.142724,0.10746 l -0.05143,0.02858 -0.377123,0.0056 c -0.207419,0.0031 -0.420636,0.006 -0.473817,0.0066 -0.114685,0.0011 -0.114659,0.0011 -0.09177,0.08936 0.02552,0.0984 0.05966,0.15733 0.132723,0.229129 0.166255,0.163374 0.433509,0.219392 0.672856,0.141036 0.03771,-0.01235 0.07628,-0.02586 0.08571,-0.03004 0.154737,-0.06855 0.176482,-0.0771 0.19613,-0.0771 0.04588,0 0.05222,0.04283 0.01172,0.07918 -0.05921,0.05313 -0.210818,0.142708 -0.311343,0.183949 -0.04844,0.01988 -0.162655,0.0553 -0.20506,0.06361 -0.05914,0.01158 -0.171344,0.0208 -0.222846,0.01831 z m 0.372839,-0.875402 0.158563,-0.0053 -0.0013,-0.03949 c -0.0028,-0.08682 -0.09268,-0.210114 -0.199257,-0.2734 -0.09509,-0.05646 -0.151036,-0.07021 -0.270865,-0.06654 -0.09331,0.0029 -0.108022,0.0056 -0.158563,0.02935 -0.08931,0.04201 -0.178191,0.132553 -0.217448,0.221516 -0.0083,0.01885 -0.0185,0.042 -0.02262,0.05143 -0.01177,0.02695 -0.01886,0.07157 -0.0129,0.08122 0.006,0.0097 0.451702,0.01043 0.724379,0.0013 z m -6.192547,0.859196 c -0.05789,-0.02026 -0.101303,-0.0451 -0.137136,-0.07845 -0.09887,-0.09203 -0.150391,-0.206978 -0.16845,-0.37582 -0.01602,-0.149782 0.0043,-0.258855 0.0722,-0.388596 0.04222,-0.08061 0.06927,-0.115772 0.155683,-0.202357 0.06732,-0.06745 0.141113,-0.127429 0.201982,-0.16416 0.05223,-0.03152 0.203445,-0.105124 0.215964,-0.105124 0.0066,0 0.01569,-0.0036 0.02017,-0.008 0.01597,-0.01577 0.20698,-0.05932 0.305806,-0.06973 0.156577,-0.01649 0.405519,0.0079 0.505411,0.04961 0.05552,0.02316 0.0557,0.02472 0.04832,0.40529 -0.0077,0.395949 -9.23e-4,0.542607 0.02776,0.603672 0.01981,0.04215 0.0579,0.07335 0.08961,0.07341 0.02846,5.3e-5 0.05548,0.02435 0.05548,0.04989 0,0.0398 -0.07192,0.100106 -0.175706,0.147331 -0.187381,0.08527 -0.233278,0.09416 -0.272837,0.05287 -0.03396,-0.03545 -0.04054,-0.06942 -0.03929,-0.202916 9.75e-4,-0.102049 -8.72e-4,-0.120394 -0.01214,-0.122667 -0.01552,-0.0031 -0.03104,0.0064 -0.151421,0.09308 -0.256737,0.184835 -0.435876,0.258051 -0.62568,0.255723 -0.04505,-5.65e-4 -0.09674,-0.0064 -0.115712,-0.013 z m 0.415146,-0.205802 c 0.07885,-0.01975 0.122482,-0.03991 0.204382,-0.0944 0.07291,-0.04851 0.220586,-0.18988 0.264458,-0.253159 l 0.02454,-0.0354 0.0043,-0.250235 c 0.0024,-0.137629 0.0031,-0.25613 0.0017,-0.263334 -0.0029,-0.01472 -0.08535,-0.05413 -0.151147,-0.07224 -0.131444,-0.03618 -0.304374,-0.04727 -0.388334,-0.02492 -0.171418,0.04564 -0.295234,0.175974 -0.354826,0.373526 -0.018,0.05965 -0.01534,0.290603 0.0041,0.352895 0.04472,0.1436 0.120041,0.231684 0.224297,0.26229 0.07573,0.02223 0.09537,0.02282 0.166587,0.005 z m 1.382975,0.200515 c -0.04661,-0.05097 -0.04726,-0.05647 -0.03735,-0.311845 0.01271,-0.327531 0.01158,-0.539865 -0.0034,-0.646887 -0.0142,-0.101116 -0.02502,-0.12802 -0.06844,-0.170102 -0.01952,-0.01892 -0.03041,-0.03747 -0.03041,-0.05182 0,-0.05404 0.1604,-0.158066 0.323855,-0.210024 0.04168,-0.01325 0.04698,-0.0133 0.06629,-6.67e-4 0.01154,0.0076 0.02356,0.02399 0.0267,0.03649 0.0031,0.0125 0.0025,0.09634 -0.0013,0.186311 -0.008,0.184894 -0.01181,0.550204 -0.006,0.572636 0.0065,0.02515 0.03354,0.0023 0.04002,-0.03385 0.01314,-0.07335 0.07891,-0.244555 0.137549,-0.358072 0.08799,-0.170331 0.209386,-0.31068 0.312908,-0.361757 0.143233,-0.07067 0.244398,-0.05295 0.348932,0.06114 0.08392,0.09158 0.156757,0.25737 0.156757,0.356792 0,0.04127 -0.0038,0.05423 -0.02284,0.0768 -0.03117,0.03704 -0.09997,0.08646 -0.159034,0.114228 -0.09911,0.0466 -0.161312,0.0367 -0.148159,-0.02359 0.01501,-0.06881 4.07e-4,-0.145149 -0.04513,-0.235839 -0.05169,-0.102946 -0.111249,-0.136133 -0.179726,-0.100142 -0.03768,0.01981 -0.105975,0.09674 -0.145248,0.163623 -0.04441,0.07564 -0.114616,0.23888 -0.140146,0.325876 -0.0042,0.01414 -0.01376,0.04692 -0.02136,0.07285 -0.04406,0.150375 -0.05376,0.253886 -0.03387,0.361285 0.0053,0.02841 0.0027,0.03435 -0.02741,0.06428 -0.05564,0.05526 -0.225349,0.130859 -0.294816,0.131336 -0.02103,1.45e-4 -0.03618,-0.0058 -0.04828,-0.01908 z m 1.704674,0.0026 c -0.141936,-0.04834 -0.229098,-0.162314 -0.285442,-0.373248 -0.01633,-0.06112 -0.01449,-0.252326 0.003,-0.313945 0.03563,-0.125414 0.109043,-0.246847 0.209703,-0.346855 0.05875,-0.05837 0.167263,-0.145462 0.199748,-0.160315 0.0071,-0.0032 0.02042,-0.01072 0.02967,-0.01665 0.07185,-0.04601 0.186473,-0.09661 0.283167,-0.125024 0.141401,-0.04155 0.18388,-0.0475 0.34284,-0.04805 l 0.154278,-5.64e-4 0.0026,-0.115709 c 0.0031,-0.137743 -0.02012,-0.454611 -0.03858,-0.527116 -0.01621,-0.06367 -0.02783,-0.08665 -0.0617,-0.122058 -0.04279,-0.04472 -0.03682,-0.06078 0.04558,-0.122676 l 0.05074,-0.03811 h 0.142114 0.142115 l -0.0022,0.827101 c -0.0024,0.899423 0.0026,1.085612 0.03039,1.149357 0.0196,0.04486 0.05449,0.0763 0.08468,0.0763 0.03236,0 0.06283,0.02442 0.06283,0.05036 0,0.05763 -0.09994,0.120956 -0.3411,0.216144 -0.01083,0.0043 -0.03474,0.0078 -0.05313,0.0078 -0.02843,0 -0.03704,-0.0047 -0.05745,-0.03143 -0.02356,-0.03084 -0.02409,-0.03409 -0.02829,-0.173463 -0.0037,-0.124126 -0.0061,-0.142376 -0.01869,-0.144784 -0.0079,-0.0015 -0.05035,0.02375 -0.09428,0.05614 -0.222603,0.164124 -0.372913,0.242982 -0.534637,0.280488 -0.07748,0.01797 -0.209717,0.01616 -0.267952,-0.0037 z m 0.423065,-0.201909 c 0.09588,-0.02428 0.167585,-0.06267 0.266299,-0.142576 0.06954,-0.05629 0.162225,-0.153692 0.198812,-0.208927 l 0.02487,-0.03754 0.0045,-0.251 c 0.0025,-0.138049 0.0028,-0.255462 7.18e-4,-0.260917 -0.0044,-0.01156 -0.117535,-0.05416 -0.204101,-0.07687 -0.08805,-0.02311 -0.308198,-0.02304 -0.368553,1.22e-4 -0.0643,0.02467 -0.153274,0.08617 -0.197067,0.13621 -0.04446,0.0508 -0.100433,0.158238 -0.121569,0.233338 -0.02014,0.07155 -0.01981,0.236792 6.15e-4,0.316831 0.0484,0.189542 0.162067,0.296405 0.322632,0.303331 0.01197,5.13e-4 0.04476,-0.0049 0.07285,-0.01199 z m 3.159082,0.188485 c -0.01456,-0.01659 -0.02908,-0.04055 -0.03228,-0.05326 -0.0032,-0.01271 -0.0013,-0.138953 0.0043,-0.280543 0.0134,-0.341816 0.01256,-0.508932 -0.0031,-0.615334 -0.01496,-0.101716 -0.02155,-0.118142 -0.0666,-0.165951 -0.04845,-0.05141 -0.04341,-0.07292 0.02985,-0.12755 0.09489,-0.07075 0.284918,-0.157847 0.317291,-0.145425 0.0072,0.0028 0.01989,0.0177 0.02824,0.03321 0.01409,0.02617 0.01448,0.04109 0.0053,0.207344 -0.0054,0.09853 -0.0098,0.268369 -0.0098,0.37742 2.7e-5,0.189786 7.69e-4,0.198465 0.01685,0.202675 0.01248,0.0033 0.02133,-0.0032 0.03433,-0.02527 0.02992,-0.05072 0.199599,-0.269474 0.291358,-0.37564 0.06842,-0.07916 0.249256,-0.25348 0.308892,-0.297758 0.160612,-0.119249 0.256228,-0.140991 0.368392,-0.08377 0.04082,0.02082 0.109029,0.09548 0.141638,0.155021 l 0.02545,0.04648 0.0055,0.364267 c 0.0055,0.361584 0.01041,0.424456 0.0374,0.477622 0.01687,0.03324 0.05188,0.06235 0.07496,0.06235 0.03067,0 0.06659,0.02763 0.06659,0.05122 0,0.05671 -0.10126,0.120617 -0.341101,0.215282 -0.03666,0.01447 -0.08311,0.0092 -0.102688,-0.01163 -0.04327,-0.04606 -0.04459,-0.05922 -0.03604,-0.35865 0.01681,-0.588536 0.01204,-0.647307 -0.05823,-0.717577 -0.03677,-0.03677 -0.03891,-0.03764 -0.08347,-0.03394 -0.07656,0.0063 -0.147578,0.04802 -0.242964,0.14255 -0.121146,0.120062 -0.159561,0.169353 -0.254897,0.327057 -0.06648,0.109966 -0.09471,0.166054 -0.130869,0.259949 -0.03379,0.08776 -0.03919,0.131103 -0.02245,0.180408 0.01307,0.03849 0.01289,0.0411 -0.0045,0.06554 -0.04326,0.06076 -0.230066,0.153624 -0.30966,0.153941 -0.0251,10e-5 -0.03647,-0.0058 -0.05773,-0.03003 z M 15.4987,25.99499 15.47294,25.95942 v -0.87245 c 0,-0.489684 -0.0033,-0.874485 -0.0075,-0.877088 -0.0081,-0.005 -0.210069,0.01448 -0.301052,0.02904 -0.05543,0.0089 -0.08619,0.01556 -0.184277,0.04003 -0.05384,0.01344 -0.165271,0.05256 -0.17999,0.0632 -0.0047,0.0034 -0.0191,0.0081 -0.03196,0.0104 -0.0178,0.0032 -0.02651,-5.64e-4 -0.03643,-0.01569 -0.0072,-0.01095 -0.01304,-0.02645 -0.01304,-0.03445 0,-0.04986 0.13125,-0.194859 0.240161,-0.265313 l 0.06275,-0.04059 0.219242,0.0035 c 0.120584,0.0019 0.462231,0.002 0.759215,2.18e-4 0.520363,-0.0032 0.540481,-0.0027 0.553959,0.01286 0.02001,0.02309 0.02621,0.04932 0.01723,0.07286 -0.0236,0.06187 -0.225005,0.217222 -0.288351,0.222406 -0.03686,0.003 -0.04544,-0.002 -0.07339,-0.04297 -0.04518,-0.06621 -0.0597,-0.06995 -0.260877,-0.06713 l -0.17142,0.0024 -0.0022,0.265701 c -0.0012,0.146135 0.0012,0.475904 0.0055,0.73282 0.0063,0.38082 0.01013,0.474479 0.02083,0.506954 0.01764,0.05355 0.03478,0.08548 0.05644,0.105078 0.02958,0.02677 0.02362,0.06254 -0.01659,0.09966 -0.05992,0.05532 -0.208365,0.119683 -0.276037,0.11969 -0.03783,4e-6 -0.04245,-0.0025 -0.06643,-0.03556 z m 1.32054,0.0092 c -0.0145,-0.0145 -0.02684,-0.03283 -0.02742,-0.04071 -5.64e-4,-0.0079 -0.0015,-0.423176 -0.0022,-0.922866 -0.0012,-1.01619 0.0017,-0.966135 -0.06127,-1.025588 -0.02142,-0.0202 -0.02979,-0.03545 -0.0297,-0.0541 1.68e-4,-0.03318 0.0031,-0.03706 0.06065,-0.08011 l 0.04792,-0.03585 h 0.139316 0.139317 l -0.0059,0.126423 c -0.01042,0.223208 -0.0097,1.482908 8.21e-4,1.493474 0.0068,0.0068 0.02437,-0.0112 0.06414,-0.06599 0.0301,-0.04147 0.06111,-0.08312 0.06893,-0.09255 0.0078,-0.0094 0.05415,-0.06728 0.102966,-0.128565 0.163919,-0.205765 0.350178,-0.377883 0.478808,-0.442453 0.04773,-0.02397 0.06492,-0.02802 0.119994,-0.02831 0.07367,-3.98e-4 0.111133,0.01505 0.16597,0.06842 0.03546,0.03451 0.08386,0.105862 0.09561,0.140932 0.0039,0.01178 0.0096,0.181491 0.01261,0.377124 0.0057,0.37545 0.007,0.387158 0.04807,0.442532 0.01364,0.01839 0.03013,0.02874 0.05239,0.03287 0.111865,0.02076 0.06949,0.09856 -0.09818,0.180234 -0.0878,0.04277 -0.09442,0.04563 -0.156758,0.06771 -0.05578,0.01976 -0.0699,0.01746 -0.103026,-0.01673 l -0.02954,-0.03048 0.0031,-0.422816 c 0.0029,-0.384095 0.0018,-0.427024 -0.01179,-0.468774 -0.04441,-0.136596 -0.128491,-0.150036 -0.278488,-0.04452 -0.05977,0.04205 -0.165271,0.15605 -0.240584,0.259973 -0.06044,0.0834 -0.167737,0.278463 -0.183869,0.334269 -0.0034,0.01179 -0.0089,0.02528 -0.01228,0.03 -0.01321,0.01861 -0.02803,0.106689 -0.02253,0.133969 0.01631,0.08099 0.01653,0.0793 -0.01427,0.109406 -0.03837,0.03751 -0.105929,0.07472 -0.190648,0.10499 -0.0862,0.0308 -0.09976,0.0306 -0.132262,-0.0019 z m 2.292082,0.0092 c -0.124012,-0.02788 -0.202656,-0.06196 -0.287128,-0.124409 -0.07535,-0.05571 -0.08816,-0.06815 -0.136539,-0.132701 -0.156017,-0.208158 -0.14876,-0.443735 0.02099,-0.681395 0.121585,-0.170223 0.319792,-0.296599 0.552667,-0.35238 0.09138,-0.02189 0.295465,-0.02185 0.355697,7.4e-5 0.157637,0.05737 0.289181,0.158546 0.344029,0.264609 0.03608,0.06978 0.04635,0.148556 0.02493,0.191375 -0.02392,0.04784 -0.123226,0.130976 -0.201569,0.168753 -0.03796,0.0183 -0.04869,0.01882 -0.475952,0.02314 l -0.437121,0.0044 -0.0029,0.02506 c -0.0038,0.03316 0.02029,0.117124 0.04778,0.166634 0.06695,0.120617 0.189969,0.208974 0.352986,0.253534 0.07522,0.02056 0.234789,0.02123 0.304917,0.0013 0.06881,-0.01957 0.157648,-0.05305 0.234609,-0.08842 0.06652,-0.03057 0.100547,-0.03333 0.115542,-0.0094 0.01355,0.02165 -0.0049,0.04857 -0.06139,0.08943 -0.07198,0.05209 -0.159638,0.09943 -0.255317,0.13788 -0.193666,0.07783 -0.343943,0.09676 -0.496282,0.0625 z m 0.59465,-0.810724 c 0.03029,-0.0098 -0.02134,-0.148044 -0.07817,-0.209331 -0.09463,-0.102046 -0.200744,-0.148554 -0.340775,-0.149353 -0.08934,-5.1e-4 -0.100203,0.0018 -0.185023,0.03899 -0.05016,0.02201 -0.116786,0.0851 -0.156853,0.148541 -0.04262,0.06749 -0.07421,0.15597 -0.06126,0.171578 0.0071,0.0086 0.09322,0.01007 0.409633,0.0071 0.220344,-0.0021 0.405946,-0.0054 0.412448,-0.0075 z"
       id="path1" /></g></svg>
